<?xml version="1.0" encoding="UTF-8"?>
<svg version="1.1" xmlns="http://www.w3.org/2000/svg" width="1024" height="1024">
<path d="M0 0 C337.92 0 675.84 0 1024 0 C1024 337.92 1024 675.84 1024 1024 C686.08 1024 348.16 1024 0 1024 C0 686.08 0 348.16 0 0 Z " fill="#FEFEFE" transform="translate(0,0)"/>
<path d="M0 0 C7.02559782 1.17093297 12.35591441 8.02267932 16.375 13.5625 C20.39844421 20.05336028 22.1037385 24.91074578 21.375 32.5625 C21.045 32.8925 20.715 33.2225 20.375 33.5625 C13.51129578 33.41973495 6.95927481 32.46181004 0.375 30.5625 C4.75748861 36.01211941 9.16349367 41.39396925 13.875 46.5625 C16.89782421 49.88239486 19.80012161 53.26014112 22.625 56.75 C27.83886438 63.18798906 33.28541253 69.41413566 38.72412109 75.66162109 C45.61937975 83.60105971 52.43209363 91.61183187 59.21337891 99.64868164 C61.67148476 102.55917506 64.14100839 105.45920856 66.625 108.34765625 C67.16705078 108.97800781 67.70910156 109.60835938 68.26757812 110.2578125 C69.31201331 111.47103247 70.35752642 112.68332559 71.40429688 113.89453125 C73.83211886 116.71436249 76.19287479 119.54733375 78.375 122.5625 C81.68484185 121.92454862 83.98730269 120.69017736 86.8125 118.875 C108.51403052 105.62531006 132.03650452 101.3126881 156.8203125 106.6484375 C167.35486577 109.35732263 167.35486577 109.35732263 170.375 111.5625 C171.3828125 113.9375 171.3828125 113.9375 171.375 116.5625 C169.77734375 118.6328125 169.77734375 118.6328125 167.3125 120.6875 C166.38824219 121.46738281 165.46398437 122.24726563 164.51171875 123.05078125 C160.65255127 126.16483161 156.75192412 129.22732154 152.83178711 132.26416016 C148.56940181 135.57712047 144.4496702 139.02201609 140.375 142.5625 C135.24589323 147.01646053 129.99481306 151.25876086 124.625 155.41796875 C120.43466768 158.68231246 116.38543537 162.08022465 112.375 165.5625 C107.25205262 170.0107735 102.00807586 174.248622 96.64477539 178.40258789 C90.53626563 183.16129324 84.64409137 188.17971926 78.86450195 193.33251953 C77.375 194.5625 77.375 194.5625 74.6328125 196.14453125 C70.83013998 200.21694351 70.66640436 205.44245887 69.8125 210.8125 C68.15864205 220.85252811 66.67378469 229.77258526 58.375 236.5625 C52.95444496 239.8157745 47.61203672 241.45241512 41.4375 242.60546875 C40.57983536 242.77523727 39.72217072 242.9450058 38.83851624 243.11991882 C36.01943878 243.67469297 33.19741973 244.21251205 30.375 244.75 C28.39102767 245.13667671 26.4072251 245.52422538 24.42358398 245.91259766 C7.43237096 249.22443781 -9.5844833 252.41101891 -26.60742188 255.55541992 C-28.51826505 255.90914865 -30.42907341 256.26306555 -32.33984375 256.6171875 C-33.24594391 256.78477066 -34.15204407 256.95235382 -35.08560181 257.12501526 C-40.24393275 258.08805666 -45.36739953 259.14382609 -50.48828125 260.2890625 C-60.29724171 262.42986355 -71.50789223 263.87334751 -80.41894531 258.25830078 C-88.30102037 252.19932631 -91.23377689 241.65348766 -94.625 232.6875 C-104.16588975 207.59918378 -117.02354533 189.34522775 -142.0234375 178.0234375 C-160.60319547 170.47678996 -180.06834649 170.46114803 -198.75 177.8125 C-218.12399209 186.49739301 -232.67757443 199.2959399 -241.30859375 219.02734375 C-244.72648798 228.20596178 -246.92674097 237.78687355 -247.625 247.5625 C-263.51279111 251.27739061 -263.51279111 251.27739061 -269.6875 247.875 C-273.9937788 240.51265238 -271.92019886 231.90641798 -269.9375 224 C-265.49878848 208.84608311 -258.92435951 195.55308275 -248.625 183.5625 C-247.94695312 182.73878906 -247.26890625 181.91507813 -246.5703125 181.06640625 C-240.56833517 174.02012884 -233.00882999 166.75441499 -224.625 162.5625 C-235.47901734 158.86751537 -244.26195436 161.24601584 -254.95703125 164.4375 C-256.35651498 164.84539098 -257.75631825 165.25218703 -259.15641785 165.65795898 C-262.84276424 166.72937374 -266.52478009 167.81496964 -270.20599365 168.90386963 C-273.84916208 169.97915287 -277.49593113 171.04205421 -281.14257812 172.10546875 C-285.44344779 173.36039036 -289.74390197 174.61664878 -294.04226685 175.88012695 C-300.99945369 177.92454642 -307.96043913 179.95326279 -314.93505859 181.9375 C-315.59259849 182.12461044 -316.25013838 182.31172089 -316.92760372 182.50450134 C-320.02849832 183.38600221 -323.13030549 184.26415497 -326.23310852 185.13891602 C-327.313358 185.44498779 -328.39360748 185.75105957 -329.5065918 186.06640625 C-330.45157028 186.33267822 -331.39654877 186.5989502 -332.37016296 186.87329102 C-334.62991844 187.49569554 -334.62991844 187.49569554 -336.625 188.5625 C-340.125 188.75 -340.125 188.75 -343.625 188.5625 C-345.625 186.5625 -345.625 186.5625 -346 183.125 C-345.625 179.5625 -345.625 179.5625 -344.02099609 177.97367859 C-341.05890613 176.22908562 -338.22316877 175.36224028 -334.9140625 174.42114258 C-334.24644394 174.22872986 -333.57882538 174.03631714 -332.89097595 173.83807373 C-330.67955496 173.20292062 -328.46488593 172.57998361 -326.25 171.95703125 C-324.6859031 171.5104056 -323.12202337 171.06301879 -321.55834961 170.61491394 C-317.42182482 169.43170938 -313.28245257 168.25878673 -309.14239502 167.0880127 C-305.03982657 165.92602446 -300.93991671 164.7547415 -296.83984375 163.58398438 C-292.02738455 162.21016 -287.21436468 160.83846163 -282.3984375 159.47683716 C-275.01606847 157.38891151 -267.64112994 155.28229776 -260.28515625 153.10302734 C-258.99218808 152.72284026 -257.69914014 152.34292433 -256.40600586 151.96330261 C-254.05133404 151.26992252 -251.69905568 150.56833495 -249.34985352 149.85664368 C-241.33342599 147.50785554 -235.00706965 146.85905903 -226.7421875 148.59375 C-225.60120605 148.82352539 -224.46022461 149.05330078 -223.28466797 149.29003906 C-222.03572754 149.54495117 -220.78678711 149.79986328 -219.5 150.0625 C-203.91007041 153.1512563 -188.22304167 155.51261449 -172.5 157.8125 C-171.32419373 157.98467041 -170.14838745 158.15684082 -168.93695068 158.33422852 C-163.39094742 159.14471118 -157.8441119 159.9489294 -152.29589844 160.74414062 C-148.92171426 161.22809735 -145.54977307 161.72215126 -142.18066406 162.24023438 C-140.36260254 162.51577148 -140.36260254 162.51577148 -138.5078125 162.796875 C-137.53473145 162.94866211 -136.56165039 163.10044922 -135.55908203 163.25683594 C-134.59083496 163.35770508 -133.62258789 163.45857422 -132.625 163.5625 C-131.43003906 163.69342041 -130.23507812 163.82434082 -129.00390625 163.95922852 C-122.96746672 163.87927036 -117.91717593 160.69958082 -112.6796875 157.98046875 C-110.98672043 157.12549553 -110.98672043 157.12549553 -109.259552 156.25325012 C-106.27366539 154.74176783 -103.29549311 153.21685111 -100.32019043 151.68475342 C-97.30133926 150.13443132 -94.27338632 148.602113 -91.24609375 147.06835938 C-86.81028052 144.81782943 -82.37882259 142.55919965 -77.95263672 140.28979492 C-77.01691833 139.81134125 -76.08119995 139.33288757 -75.11712646 138.8399353 C-73.6219026 138.07350078 -72.12859633 137.30328223 -70.63922119 136.52554321 C-66.84084962 134.5625 -66.84084962 134.5625 -64.625 134.5625 C-65.19372878 140.91463979 -66.6424812 146.89161294 -68.20507812 153.06860352 C-73.7087925 174.90573407 -74.9393915 190.13241703 -63.625 210.5625 C-60.61723647 214.79007874 -57.60891445 217.86309889 -52.625 219.5625 C-41.42112256 221.12337792 -29.87984697 217.64767776 -19 215.3125 C-17.08746391 214.91168852 -15.17470424 214.51194233 -13.26171875 214.11328125 C-8.60164483 213.13886675 -3.94747031 212.13892467 0.70568848 211.13208008 C3.31330423 210.5756647 5.92465208 210.0420005 8.53808594 209.51367188 C10.13741071 209.18118637 11.73669669 208.84851414 13.3359375 208.515625 C14.04956451 208.37670837 14.76319153 208.23779175 15.4984436 208.09466553 C21.78893509 206.75919931 26.51549583 204.81185586 30.68652344 199.76635742 C32.52596477 196.27604675 33.49954285 193.1426479 34.390625 189.30078125 C34.55314758 188.60978836 34.71567017 187.91879547 34.88311768 187.2068634 C35.39665757 184.99539621 35.88883368 182.78013573 36.375 180.5625 C36.61633667 179.47216461 36.61633667 179.47216461 36.86254883 178.35980225 C37.83912712 173.91671646 38.76870787 169.46554751 39.66748047 165.00610352 C40.12872251 162.7316437 40.60533126 160.46071678 41.08203125 158.18945312 C44.11809959 144.68308991 44.11809959 144.68308991 42.1953125 131.26171875 C40.07265092 128.11416692 37.75622066 125.21827911 35.25 122.375 C34.25439928 121.22335518 33.25961842 120.07100112 32.265625 118.91796875 C31.77384766 118.34997559 31.28207031 117.78198242 30.77539062 117.19677734 C28.80463081 114.89687041 26.90226707 112.54419754 25 110.1875 C20.87369197 105.11803585 16.60714282 100.18150187 12.31518555 95.25268555 C8.32808816 90.67172813 4.38695718 86.05517274 0.47363281 81.41113281 C-2.40098546 78.00209022 -5.2962792 74.61188916 -8.20532227 71.23217773 C-13.00675874 65.6536477 -17.73810777 60.03012328 -22.37890625 54.31640625 C-26.4186052 49.36338406 -30.5257201 44.46623149 -34.625 39.5625 C-38.03453142 42.42960597 -41.38546203 45.3106518 -44.5859375 48.41015625 C-45.10704102 48.90797607 -45.62814453 49.4057959 -46.16503906 49.91870117 C-47.21054237 50.92056132 -48.24665668 51.93232488 -49.27246094 52.9543457 C-51.58192383 55.15106855 -53.13293515 56.47894182 -56.31640625 57.01953125 C-59.93740784 56.30268322 -61.40726273 54.41387649 -63.625 51.5625 C-64.0859375 49.234375 -64.0859375 49.234375 -63.625 46.5625 C-61.9439016 44.48688814 -60.37667287 42.79479286 -58.4375 41 C-57.95474609 40.53142578 -57.47199219 40.06285156 -56.97460938 39.58007812 C-53.99666966 36.72205545 -50.88288367 34.09376245 -47.625 31.5625 C-50.64531772 30.60253656 -53.66634646 29.64482942 -56.6875 28.6875 C-57.53505859 28.41808594 -58.38261719 28.14867187 -59.25585938 27.87109375 C-64.02699721 26.36054046 -68.80513332 24.90970833 -73.625 23.5625 C-73.28275391 24.88314453 -73.28275391 24.88314453 -72.93359375 26.23046875 C-72.50240234 27.97263672 -72.50240234 27.97263672 -72.0625 29.75 C-71.77246094 30.89855469 -71.48242188 32.04710937 -71.18359375 33.23046875 C-70.64431239 36.44730093 -70.74252524 38.45922783 -71.625 41.5625 C-74.86782643 40.99439778 -76.33104883 40.19085056 -78.4375 37.67578125 C-78.95022461 37.07354736 -79.46294922 36.47131348 -79.99121094 35.85083008 C-80.53036133 35.19880615 -81.06951172 34.54678223 -81.625 33.875 C-82.77587362 32.51027494 -83.92691957 31.14569518 -85.078125 29.78125 C-85.95500977 28.73324219 -85.95500977 28.73324219 -86.84960938 27.6640625 C-88.57835761 25.61771146 -90.33631046 23.60175061 -92.109375 21.59375 C-92.65851563 20.96815186 -93.20765625 20.34255371 -93.7734375 19.69799805 C-94.82111142 18.50547043 -95.87303818 17.31666228 -96.9296875 16.13208008 C-101.2378634 11.17870775 -101.2378634 11.17870775 -101.625 7.5625 C-97.62317761 6.47722169 -95.11994107 6.71123742 -91.1796875 7.93359375 C-89.58278076 8.41904663 -89.58278076 8.41904663 -87.95361328 8.91430664 C-86.8139209 9.27258545 -85.67422852 9.63086426 -84.5 10 C-83.32034668 10.35892334 -82.14069336 10.71784668 -80.92529297 11.08764648 C-76.51556809 12.42969862 -72.11226276 13.79210467 -67.70922852 15.15588379 C-63.3932562 16.49149107 -59.07225745 17.80990255 -54.75 19.125 C-53.61030762 19.48327881 -52.47061523 19.84155762 -51.29638672 20.21069336 C-50.23178223 20.53432861 -49.16717773 20.85796387 -48.0703125 21.19140625 C-47.13719238 21.48088135 -46.20407227 21.77035645 -45.24267578 22.06860352 C-42.34140145 22.61600866 -40.44373787 22.3863347 -37.625 21.5625 C-35.91575159 20.38883974 -35.91575159 20.38883974 -34.50390625 18.83984375 C-33.96056641 18.30166016 -33.41722656 17.76347656 -32.85742188 17.20898438 C-31.7440893 16.06960893 -30.63470138 14.92636562 -29.52929688 13.77929688 C-25.36021905 9.66942489 -25.36021905 9.66942489 -21.375 9.08984375 C-15.50581982 10.09860909 -12.05610574 15.05304674 -8.625 19.5625 C-8.625 20.2225 -8.625 20.8825 -8.625 21.5625 C-7.965 21.5625 -7.305 21.5625 -6.625 21.5625 C-6.686875 19.9228125 -6.686875 19.9228125 -6.75 18.25 C-6.75 1.44642857 -6.75 1.44642857 0 0 Z " fill="#4E3F82" transform="translate(634.625,280.4375)"/>
<path d="M0 0 C3.50134275 2.84416765 6.78197675 5.84010196 10 9 C10.71285156 9.68835938 11.42570313 10.37671875 12.16015625 11.0859375 C17.81827184 16.95119027 25 26.57823764 25 35 C15.77162635 36.40109037 6.54236058 37.79624209 -2.6875 39.1875 C-3.71115284 39.3418646 -3.71115284 39.3418646 -4.75548553 39.49934769 C-23.48530752 42.32277369 -42.21937897 45.08383289 -61.0065918 47.50268555 C-69.09285901 48.55056449 -69.09285901 48.55056449 -77.109375 50.02734375 C-83.22623859 51.32283669 -89.41471523 51.94650735 -95.625 52.625 C-97.41744141 52.82609375 -97.41744141 52.82609375 -99.24609375 53.03125 C-102.16365642 53.35801702 -105.08159606 53.68084954 -108 54 C-108.47646007 37.62524837 -102.1428885 22.94364683 -91.4609375 10.59375 C-68.05859329 -14.07157786 -28.20118249 -21.37352778 0 0 Z " fill="#4D3F82" transform="translate(504,473)"/>
<path d="M0 0 C1.09828125 0.26683594 2.1965625 0.53367187 3.328125 0.80859375 C9.60188022 2.51341854 15.43824184 4.93251387 21.25 7.8125 C22.23528687 8.27305786 22.23528687 8.27305786 23.24047852 8.74291992 C26.77197645 10.59570129 27.89465368 11.68431219 29.171875 15.51171875 C29 19 29 19 27.34643555 21.03295898 C24.76969424 23.19306768 22.3250904 24.52601288 19.28515625 25.9609375 C18.13813232 26.50878906 16.9911084 27.05664062 15.80932617 27.62109375 C14.56080396 28.20662524 13.31185034 28.79123759 12.0625 29.375 C9.43364823 30.60934124 6.80626645 31.84676776 4.1796875 33.0859375 C3.50578476 33.4028656 2.83188202 33.7197937 2.13755798 34.04632568 C-1.91997786 35.96820998 -5.91746336 37.9751867 -9.88249207 40.08120728 C-12.40841509 41.42203803 -14.94899677 42.73375347 -17.49050903 44.04473877 C-19.25878622 44.97183812 -21.0057503 45.93923886 -22.75170898 46.90771484 C-31.26991668 51.25930704 -37.69575904 51.21012956 -46.86386108 49.40039062 C-50.5594672 48.70769876 -54.2880321 48.26502376 -58.015625 47.78125 C-59.54971454 47.57071847 -61.08356969 47.35847202 -62.6171875 47.14453125 C-65.72103115 46.71245838 -68.82520615 46.28293494 -71.9296875 45.85546875 C-79.25636344 44.84118406 -86.55916262 43.76290141 -93.85009766 42.51367188 C-97.7275482 41.88135472 -101.61366548 41.32839347 -105.50390625 40.78125 C-106.24222687 40.67655396 -106.98054749 40.57185791 -107.74124146 40.46398926 C-110.7957598 40.03086275 -113.85025309 39.59807212 -116.90649414 39.17724609 C-119.16918056 38.86474261 -121.43032081 38.54260704 -123.69140625 38.21875 C-124.38198624 38.12597778 -125.07256622 38.03320557 -125.78407288 37.93762207 C-129.1946888 37.44072284 -131.07465376 36.95023083 -134 35 C-110.11735995 17.06454424 -84.19520807 5.26952677 -55 -1 C-53.93523437 -1.24621094 -52.87046875 -1.49242187 -51.7734375 -1.74609375 C-35.11715932 -5.00102682 -16.39672735 -4.28466518 0 0 Z " fill="#4E3F82" transform="translate(540,386)"/>
<path d="M0 0 C15.08827025 5.62112029 26.2479146 17.52681853 33 31.875 C39.11810454 45.635515 39.73536869 63.29392033 34.375 77.4765625 C33.983125 78.37117188 33.59125 79.26578125 33.1875 80.1875 C32.836875 81.06148438 32.48625 81.93546875 32.125 82.8359375 C29.069448 89.73214861 24.48012345 94.88592118 19.1875 100.1875 C18.55972656 100.826875 17.93195313 101.46625 17.28515625 102.125 C5.27703205 113.49844533 -9.77599406 117.72309963 -25.98266602 117.53930664 C-43.14994363 116.93654352 -57.60401275 108.81482102 -69.4375 96.6875 C-75.55919842 89.32982921 -81.86464552 77.89228966 -83.203125 68.34765625 C-82.31256802 63.42287616 -77.61659361 60.94493657 -73.8125 58.1875 C-71.82775302 56.52748256 -69.84853671 54.86082941 -67.875 53.1875 C-63.07094595 49.1875 -63.07094595 49.1875 -60.8125 49.1875 C-60.78671875 50.22648437 -60.7609375 51.26546875 -60.734375 52.3359375 C-60.28036201 65.02240111 -57.96970011 74.77793611 -48.8125 84.1875 C-38.92294452 92.33393239 -29.34069901 94.17807013 -16.82910156 93.39013672 C-6.91273404 92.39369785 1.50142494 86.78381986 7.81640625 79.2421875 C14.1621275 69.88461647 15.37674797 59.26020682 14.1875 48.1875 C11.72057663 38.18871399 5.93342471 30.01282557 -2.640625 24.3046875 C-9.46724978 20.60544318 -16.12127478 18.9784416 -23.8125 18.1875 C-19.36858183 13.60022963 -14.66532021 9.33870765 -9.8125 5.1875 C-9.17699219 4.63964844 -8.54148437 4.09179688 -7.88671875 3.52734375 C-5.26113931 1.43735923 -3.38348829 0.22556589 0 0 Z " fill="#4E4082" transform="translate(793.8125,420.8125)"/>
<path d="M0 0 C0.65134925 1.56020867 1.29582964 3.12328579 1.9375 4.6875 C2.47697266 5.99267578 2.47697266 5.99267578 3.02734375 7.32421875 C8.53553982 22.47728826 5.06792922 39.06890798 -1.46875 53.16796875 C-9.30513628 68.01484765 -22.26391139 78.47219046 -38.19335938 83.50927734 C-51.38555213 87.08140156 -67.6259316 87.063862 -80 81 C-80.91394531 80.5875 -81.82789063 80.175 -82.76953125 79.75 C-99.87279528 71.32993156 -109.00168325 57.21666564 -115.12890625 39.7890625 C-116.2357103 34.97471305 -116.21706107 30.48068586 -116.125 25.5625 C-116.11597656 24.64017578 -116.10695313 23.71785156 -116.09765625 22.76757812 C-116.0742766 20.51144191 -116.04150916 18.25586316 -116 16 C-113.31374546 15.49236135 -110.62631617 14.99372803 -107.9375 14.5 C-107.18533203 14.35691406 -106.43316406 14.21382812 -105.65820312 14.06640625 C-101.02259825 13.223569 -96.7110385 12.84984738 -92 13 C-92.23783203 14.04800781 -92.23783203 14.04800781 -92.48046875 15.1171875 C-94.59354129 26.84235692 -92.40291813 36.74256022 -86.25 46.8125 C-80.56262637 54.74935723 -72.34122171 59.4216043 -63 62 C-50.79160073 63.60534625 -41.10974941 60.83510709 -31.125 53.8125 C-23.06257461 47.06460049 -18.92117738 37.44106618 -17.6484375 27.16015625 C-17.2048401 18.27653458 -20.06822982 10.86354035 -24 3 C-21.31374546 2.49236135 -18.62631617 1.99372803 -15.9375 1.5 C-15.18533203 1.35691406 -14.43316406 1.21382812 -13.65820312 1.06640625 C-9.02259825 0.223569 -4.7110385 -0.15015262 0 0 Z " fill="#4E4082" transform="translate(523,518)"/>
<path d="M0 0 C5.76072807 5.12911706 10.07608499 11.7050762 14.41210938 18.03881836 C17.79429485 22.93288503 21.64521161 27.03546557 26.3125 30.75 C27.199375 31.4925 28.08625 32.235 29 33 C29 33.33 29 33.66 29 34 C-26.11 34 -81.22 34 -138 34 C-138 33.67 -138 33.34 -138 33 C-134.83370229 32.53909494 -131.66694713 32.08142096 -128.5 31.625 C-127.5497998 31.48779541 -126.59959961 31.35059082 -125.62060547 31.20922852 C-118.5732817 30.20103192 -111.52033833 29.31596128 -104.4453125 28.52734375 C-97.49496785 27.48403566 -97.49496785 27.48403566 -91.625 23.9375 C-87.95608668 21.22949255 -84.50071165 20.96802336 -80 21 C-78.96875 21.309375 -77.9375 21.61875 -76.875 21.9375 C-73.95855571 22.3364573 -73.95855571 22.3364573 -72.2890625 20.39453125 C-71.07997535 18.94521063 -69.88361054 17.48519572 -68.69921875 16.015625 C-66.31463566 13.18701609 -64.55909721 12.07444444 -61 11 C-54.88365926 10.49169375 -49.64681791 10.39935542 -44 13 C-43.79375 12.319375 -43.5875 11.63875 -43.375 10.9375 C-39.93002389 3.57777831 -34.44977846 -0.9218761 -27 -4 C-16.93204037 -7.09428117 -8.81458576 -5.77891484 0 0 Z " fill="#4E3F82" transform="translate(398,569)"/>
<path d="M0 0 C1.46604868 0.03666744 2.93220556 0.06924597 4.3984375 0.09765625 C12.77652043 0.29254424 21.12925986 0.84343648 29.49023438 1.39306641 C36.48580503 1.82305167 43.4942891 1.95440121 50.5 2.125 C58.5945524 2.32211359 66.67036121 2.53951969 74.75 3.09375 C87.31768686 3.92788851 99.91270055 4.22069026 112.5 4.625 C117.60426 4.78895114 122.70840298 4.95605898 127.8125 5.125 C128.94840576 5.16044922 130.08431152 5.19589844 131.25463867 5.23242188 C137.14405553 5.42763697 143.01665073 5.70945991 148.89648438 6.09985352 C158.45649041 6.72996973 168.02598968 7.06553746 177.59983826 7.41038322 C180.93907367 7.53078068 184.27819842 7.6539318 187.61730957 7.77772522 C195.92758599 8.08533956 204.23800193 8.38909964 212.54846191 8.69171143 C220.68866822 8.9881418 228.82878353 9.28689433 236.96875 9.58984375 C238.66546341 9.65296312 238.66546341 9.65296312 240.39645386 9.71735764 C261.44062986 10.50532331 282.47158734 11.49481998 303.5 12.625 C303.5 12.955 303.5 13.285 303.5 13.625 C193.61 13.625 83.72 13.625 -29.5 13.625 C-27.85 12.305 -26.2 10.985 -24.5 9.625 C-23.39272936 8.06419183 -22.29894313 6.49373121 -21.21875 4.9140625 C-15.48163176 -1.63688853 -7.97698092 -0.38620641 0 0 Z " fill="#4E4080" transform="translate(544.5,586.375)"/>
<path d="M0 0 C-11.19956739 18.75067235 -22.50163177 37.4308234 -34 56 C-38.01930722 54.73872966 -41.71264323 53.25841619 -45.46484375 51.34765625 C-47.01981567 50.56152954 -47.01981567 50.56152954 -48.60620117 49.75952148 C-49.70552979 49.19950439 -50.8048584 48.6394873 -51.9375 48.0625 C-61.73912578 43.10869224 -71.58582814 38.27540187 -81.52514648 33.60375977 C-86.48419634 31.25983563 -91.27997682 28.79585504 -96 26 C-92.17150198 23.81519783 -88.02239503 22.7600862 -83.80664062 21.58569336 C-82.98342819 21.35292191 -82.16021576 21.12015045 -81.3120575 20.88032532 C-78.59452708 20.1129694 -75.87542099 19.35136381 -73.15625 18.58984375 C-71.26573407 18.05734689 -69.3753138 17.52451029 -67.48498535 16.99134827 C-62.50957466 15.58911519 -57.53278638 14.1918325 -52.5557251 12.79547119 C-48.49286693 11.65472222 -44.43098208 10.51053139 -40.36914825 9.36614132 C-31.97823358 7.00212681 -23.58668804 4.64034243 -15.19335938 2.28491211 C-14.41921188 2.06723175 -13.64506439 1.84955139 -12.84745789 1.62527466 C-10.89951569 1.07918021 -8.9498612 0.53920241 -7 0 C-6.32595375 -0.20661979 -5.6519075 -0.41323957 -4.95743561 -0.62612057 C-3 -1 -3 -1 0 0 Z " fill="#4E4082" transform="translate(367,346)"/>
<path d="M0 0 C7.30007214 3.2444765 13.71224665 9.71855226 17.30859375 16.796875 C19.511288 22.6132059 19.90750968 28.76372535 18.015625 34.72265625 C14.95023432 41.36642135 9.76051948 46.64805898 3.05859375 49.609375 C-4.31588351 51.41820905 -10.02103617 50.91761196 -16.75390625 47.24609375 C-22.69020576 42.9144502 -28.10943676 36.53418587 -30.25390625 29.421875 C-31.11822363 21.88866668 -31.18005954 14.83255937 -26.95703125 8.328125 C-19.76737274 0.28098429 -10.49913496 -2.69301902 0 0 Z " fill="#030306" transform="translate(676.25390625,676.578125)"/>
<path d="M0 0 C4.73182962 0.94636592 7.43829591 2.13847565 11.5859375 4.45703125 C12.20594635 4.80126633 12.8259552 5.1455014 13.4647522 5.50016785 C15.43842722 6.59797591 17.40669974 7.70508989 19.375 8.8125 C20.68976312 9.5455339 22.00486435 10.27796174 23.3203125 11.00976562 C29.2337398 14.30474756 35.12558184 17.63605287 41 21 C40 23 40 23 37.09985352 24.01464844 C35.7784906 24.38775086 34.45457877 24.7518869 33.12890625 25.109375 C32.3997551 25.31292099 31.67060394 25.51646698 30.9193573 25.72618103 C28.4690911 26.40831139 26.01587285 27.07913656 23.5625 27.75 C21.84451673 28.22556097 20.1267474 28.70189543 18.40917969 29.17895508 C15.64205983 29.94705459 12.87467794 30.71413366 10.10641479 31.47810364 C2.52517194 33.57060851 -5.04525698 35.70007429 -12.61328125 37.83984375 C-16.03369645 38.80511653 -19.45422196 39.76999735 -22.87478638 40.73474121 C-25.12545301 41.37006171 -27.37583987 42.00637415 -29.62594604 42.64367676 C-32.79646943 43.54091793 -35.96835985 44.43315849 -39.140625 45.32421875 C-40.57242851 45.73123268 -40.57242851 45.73123268 -42.03315735 46.14646912 C-42.90941269 46.39163773 -43.78566803 46.63680634 -44.68847656 46.8894043 C-45.45242737 47.10493454 -46.21637817 47.32046478 -47.003479 47.54252625 C-49 48 -49 48 -52 48 C-50.74133742 45.40080862 -49.3933766 42.95135635 -47.81689453 40.5324707 C-47.38949982 39.8753157 -46.9621051 39.21816071 -46.52175903 38.54109192 C-44.57491689 35.57612828 -42.62627737 32.61242827 -40.66943359 29.65405273 C-39.63842285 28.09091266 -38.61238429 26.52448186 -37.59130859 24.95483398 C-36.11623749 22.68763024 -34.62637975 20.43083017 -33.1328125 18.17578125 C-32.67850861 17.47165604 -32.22420471 16.76753082 -31.75613403 16.04206848 C-28.51741614 11.20527475 -28.51741614 11.20527475 -26.0632019 10.23161316 C-22.63071385 9.84628519 -19.79375761 11.52473037 -16.75 12.9375 C-14.5225 13.948125 -12.295 14.95875 -10 16 C-6.7 10.72 -3.4 5.44 0 0 Z " fill="#4E4081" transform="translate(345,398)"/>
<path d="M0 0 C23.57943925 0 23.57943925 0 31.265625 7.08984375 C36.76816965 12.87939163 40.04529477 18.20737928 40.5 26.3125 C40.25950306 33.3157708 38.10792007 39.0423662 32.98046875 43.921875 C27.76465368 47.75837645 23.41740713 48.79627279 17 49 C17 47.68 17 46.36 17 45 C16.01 45 15.02 45 14 45 C14 46.32 14 47.64 14 49 C10.37 49 6.74 49 3 49 C3 47.68 3 46.36 3 45 C2.01 45 1.02 45 0 45 C0 30.15 0 15.3 0 0 Z " fill="#020104" transform="translate(545,677)"/>
<path d="M0 0 C2.54061807 1.19688077 4.77170636 2.25220015 6.953125 4.0234375 C7.448125 6.0034375 7.448125 6.0034375 7.953125 8.0234375 C4.488125 10.9934375 4.488125 10.9934375 0.953125 14.0234375 C0.14875 13.5284375 -0.655625 13.0334375 -1.484375 12.5234375 C-5.8232237 10.69655384 -9.40292215 10.08267357 -14.046875 11.0234375 C-16.80256947 13.20502895 -18.48276247 14.89521244 -20.046875 18.0234375 C-20.19543688 22.55457496 -20.15216824 26.60226454 -19.046875 31.0234375 C-18.056875 31.0234375 -17.066875 31.0234375 -16.046875 31.0234375 C-16.046875 31.6834375 -16.046875 32.3434375 -16.046875 33.0234375 C-14.44460545 33.24589143 -12.83990733 33.45090419 -11.234375 33.6484375 C-10.34105469 33.76445313 -9.44773437 33.88046875 -8.52734375 34 C-5.78997109 34.25844493 -5.78997109 34.25844493 -3.046875 32.0234375 C-4.366875 31.6934375 -5.686875 31.3634375 -7.046875 31.0234375 C-7.046875 29.7034375 -7.046875 28.3834375 -7.046875 27.0234375 C-8.036875 27.0234375 -9.026875 27.0234375 -10.046875 27.0234375 C-10.046875 23.7234375 -10.046875 20.4234375 -10.046875 17.0234375 C-2.126875 17.0234375 5.793125 17.0234375 13.953125 17.0234375 C13.953125 18.3434375 13.953125 19.6634375 13.953125 21.0234375 C14.943125 21.0234375 15.933125 21.0234375 16.953125 21.0234375 C17.60874943 29.74688478 15.78110536 35.47846906 11.203125 42.8359375 C6.63842218 47.27384302 0.2678965 50.09751362 -6.109375 50.3984375 C-13.26346108 50.24770311 -18.62461672 47.48631292 -23.609375 42.41796875 C-30.36278668 34.39829238 -32.61225185 29.0651193 -32.4140625 18.5390625 C-31.76248457 12.3005504 -29.6532599 8.14449555 -24.78125 4.1796875 C-16.91294074 -1.20122077 -9.44632739 -3.02766903 0 0 Z " fill="#030206" transform="translate(400.046875,676.9765625)"/>
<path d="M0 0 C5.83315195 2.62997602 10.03531268 6.75408909 12.90429688 12.47363281 C14.0861259 16.10917574 14.08946647 19.5002404 14.03515625 23.27734375 C14.03232635 24.02493454 14.02949646 24.77252533 14.02658081 25.54277039 C14.01543844 27.9167013 13.99034537 30.29024675 13.96484375 32.6640625 C13.95480624 34.2792914 13.94568174 35.89452626 13.9375 37.50976562 C13.91551864 41.45717844 13.88103032 45.40430524 13.83984375 49.3515625 C9.87984375 49.3515625 5.91984375 49.3515625 1.83984375 49.3515625 C1.83984375 48.0315625 1.83984375 46.7115625 1.83984375 45.3515625 C0.84984375 45.3515625 -0.14015625 45.3515625 -1.16015625 45.3515625 C-1.16015625 41.3915625 -1.16015625 37.4315625 -1.16015625 33.3515625 C-2.48015625 33.3515625 -3.80015625 33.3515625 -5.16015625 33.3515625 C-5.16015625 32.0315625 -5.16015625 30.7115625 -5.16015625 29.3515625 C-5.82015625 29.3515625 -6.48015625 29.3515625 -7.16015625 29.3515625 C-7.16015625 35.9515625 -7.16015625 42.5515625 -7.16015625 49.3515625 C-10.79015625 49.3515625 -14.42015625 49.3515625 -18.16015625 49.3515625 C-18.16015625 48.0315625 -18.16015625 46.7115625 -18.16015625 45.3515625 C-19.48015625 45.3515625 -20.80015625 45.3515625 -22.16015625 45.3515625 C-22.23461032 40.61933795 -22.28890095 35.88745839 -22.32495117 31.15478516 C-22.33998801 29.54665178 -22.36042297 27.93855906 -22.38647461 26.33056641 C-22.42308447 24.01194186 -22.43993347 21.69386201 -22.453125 19.375 C-22.46860886 18.66225922 -22.48409271 17.94951843 -22.50004578 17.21517944 C-22.50184152 11.8242018 -21.34940727 7.6967907 -17.625 3.70703125 C-11.83916872 -0.71742797 -7.20538029 -2.16291705 0 0 Z " fill="#060509" transform="translate(451.16015625,676.6484375)"/>
<path d="M0 0 C0.9075 0.825 1.815 1.65 2.75 2.5 C3.69746094 3.35658203 3.69746094 3.35658203 4.6640625 4.23046875 C8.13579178 7.69528224 10.20496813 10.22908877 10.3125 15.25 C10.13376529 18.45569356 9.30755532 20.70018395 7.75 23.5 C7.09 23.5 6.43 23.5 5.75 23.5 C6.56855469 24.28632812 7.38710938 25.07265625 8.23046875 25.8828125 C11.7206961 30.07108532 11.31838175 34.14713892 11.0625 39.375 C11.03994141 40.25414062 11.01738281 41.13328125 10.99414062 42.0390625 C10.93559748 44.19345007 10.84592783 46.3469531 10.75 48.5 C7.12 48.5 3.49 48.5 -0.25 48.5 C-0.25 47.18 -0.25 45.86 -0.25 44.5 C-1.57 44.5 -2.89 44.5 -4.25 44.5 C-4.25 40.21 -4.25 35.92 -4.25 31.5 C-5.24 31.5 -6.23 31.5 -7.25 31.5 C-7.25 30.18 -7.25 28.86 -7.25 27.5 C-7.91 27.5 -8.57 27.5 -9.25 27.5 C-9.25 34.43 -9.25 41.36 -9.25 48.5 C-13.21 48.5 -17.17 48.5 -21.25 48.5 C-21.25 47.18 -21.25 45.86 -21.25 44.5 C-22.57 44.5 -23.89 44.5 -25.25 44.5 C-25.34938127 39.64369582 -25.42170794 34.78799235 -25.46972656 29.9309082 C-25.48975797 28.28106363 -25.51699142 26.6312893 -25.55175781 24.98168945 C-25.60065357 22.60089726 -25.6230528 20.221049 -25.640625 17.83984375 C-25.66127014 17.11039047 -25.68191528 16.38093719 -25.70318604 15.62937927 C-25.70554776 10.15587454 -24.37248654 7.01170458 -21.25 2.5 C-14.9469135 -2.51674232 -7.39591799 -3.41350061 0 0 Z " fill="#040306" transform="translate(622.25,677.5)"/>
<path d="M0 0 C0.84039886 2.58122508 1.67250556 5.16463901 2.5 7.75 C2.73847656 8.47960937 2.97695313 9.20921875 3.22265625 9.9609375 C3.44824219 10.66992188 3.67382812 11.37890625 3.90625 12.109375 C4.11572266 12.75874023 4.32519531 13.40810547 4.54101562 14.07714844 C5 16 5 16 5 20 C-7.22921182 22.59291306 -19.46647837 25.1142263 -31.75 27.4375 C-40.69324468 29.13464598 -49.60313785 30.94954079 -58.5 32.875 C-68.65216615 35.07213214 -78.81038515 37.23545121 -88.98168945 39.34210205 C-90.47721476 39.65224126 -91.9725012 39.96353481 -93.4675293 40.27606201 C-107.90484974 43.2923231 -107.90484974 43.2923231 -115 44 C-112.75466405 41.75466405 -111.23880136 41.20978329 -108.26953125 40.14453125 C-106.75504395 39.59406128 -106.75504395 39.59406128 -105.20996094 39.0324707 C-104.08879883 38.62988037 -102.96763672 38.22729004 -101.8125 37.8125 C-99.33379049 36.90847433 -96.85579495 36.00273111 -94.37890625 35.09375 C-93.71422333 34.85010208 -93.04954041 34.60645416 -92.36471558 34.35542297 C-83.95885164 31.26429782 -75.60557057 28.03652575 -67.25 24.8125 C-65.60531391 24.17852763 -63.96061984 23.54457595 -62.31591797 22.91064453 C-58.08681508 21.28000075 -53.85831884 19.64778895 -49.62994385 18.01525879 C-42.43003999 15.23582086 -35.22901733 12.45929267 -28.02697754 9.68539429 C-25.48856985 8.70718054 -22.95081049 7.72729877 -20.41308594 6.74731445 C-18.85745222 6.14787046 -17.30178969 5.54850123 -15.74609375 4.94921875 C-15.04783981 4.67906952 -14.34958588 4.40892029 -13.63017273 4.13058472 C-2.8915592 0 -2.8915592 0 0 0 Z " fill="#504282" transform="translate(259,406)"/>
<path d="M0 0 C5.92133414 2.54432326 9.47294431 7.06733518 12.875 12.421875 C14.55768168 17.46992004 14.43712419 21.74271446 12.3125 26.609375 C10.03846654 30.71859335 7.37412347 33.0153354 2.875 34.421875 C0.10962564 34.71245724 -2.3318078 34.61788849 -5.125 34.421875 C-5.125 33.101875 -5.125 31.781875 -5.125 30.421875 C-5.785 30.421875 -6.445 30.421875 -7.125 30.421875 C-7.125 36.691875 -7.125 42.961875 -7.125 49.421875 C-10.755 49.421875 -14.385 49.421875 -18.125 49.421875 C-18.125 48.101875 -18.125 46.781875 -18.125 45.421875 C-19.445 45.421875 -20.765 45.421875 -22.125 45.421875 C-22.19945407 40.68965045 -22.2537447 35.95777089 -22.28979492 31.22509766 C-22.30483176 29.61696428 -22.32526672 28.00887156 -22.35131836 26.40087891 C-22.38792822 24.08225436 -22.40477722 21.76417451 -22.41796875 19.4453125 C-22.43345261 18.73257172 -22.44893646 18.01983093 -22.46488953 17.28549194 C-22.46668527 11.8945143 -21.31425102 7.7671032 -17.58984375 3.77734375 C-11.76144341 -0.67966827 -7.26134223 -1.97551223 0 0 Z " fill="#07070A" transform="translate(728.125,676.578125)"/>
<path d="M0 0 C5.27911062 1.57265813 10.00410848 3.87283101 14.8984375 6.3515625 C16.15087753 6.97990494 16.15087753 6.97990494 17.42861938 7.62094116 C20.07932433 8.95186436 22.72718353 10.28834106 25.375 11.625 C27.17820004 12.5316188 28.98158354 13.4378728 30.78515625 14.34375 C35.19223959 16.55828184 39.59678029 18.77779658 44 21 C44 25.63297317 43.15108986 26.70695438 40.5546875 30.421875 C39.8234668 31.48212891 39.09224609 32.54238281 38.33886719 33.63476562 C37.95307495 34.187854 37.56728271 34.74094238 37.1697998 35.31079102 C35.26479578 38.06164624 33.42236115 40.85395119 31.5703125 43.640625 C30.08912961 45.84414532 28.60735707 48.0472694 27.125 50.25 C26.74537109 50.82024902 26.36574219 51.39049805 25.97460938 51.97802734 C24.86710781 53.64069473 23.75012622 55.29703545 22.6328125 56.953125 C21.98199707 57.92411133 21.33118164 58.89509766 20.66064453 59.89550781 C20.11263184 60.58999023 19.56461914 61.28447266 19 62 C18.34 62 17.68 62 17 62 C16.73372803 61.03513672 16.46745605 60.07027344 16.19311523 59.07617188 C14.94338331 54.55018839 13.69089258 50.02497097 12.4375 45.5 C12.21201477 44.68565491 11.98652954 43.87130981 11.75421143 43.0322876 C8.59193567 31.62089069 5.37012283 20.23164872 1.98217773 8.88476562 C1.71735596 7.99208984 1.45253418 7.09941406 1.1796875 6.1796875 C0.95007324 5.41382324 0.72045898 4.64795898 0.48388672 3.85888672 C0 2 0 2 0 0 Z " fill="#4E4081" transform="translate(265,380)"/>
<path d="M0 0 C1.63001953 0.01353516 1.63001953 0.01353516 3.29296875 0.02734375 C4.12441406 0.03894531 4.95585937 0.05054688 5.8125 0.0625 C5.8125 1.3825 5.8125 2.7025 5.8125 4.0625 C7.1325 4.0625 8.4525 4.0625 9.8125 4.0625 C9.8125 7.3625 9.8125 10.6625 9.8125 14.0625 C6.5125 14.7225 3.2125 15.3825 -0.1875 16.0625 C2.1225 16.3925 4.4325 16.7225 6.8125 17.0625 C6.8125 18.3825 6.8125 19.7025 6.8125 21.0625 C7.8025 21.0625 8.7925 21.0625 9.8125 21.0625 C9.8125 24.3625 9.8125 27.6625 9.8125 31.0625 C4.8625 31.0625 -0.0875 31.0625 -5.1875 31.0625 C-4.8575 31.7225 -4.5275 32.3825 -4.1875 33.0625 C-1.60144668 33.5308265 -1.60144668 33.5308265 1.375 33.6875 C2.38691406 33.76226563 3.39882813 33.83703125 4.44140625 33.9140625 C5.22386719 33.96304688 6.00632812 34.01203125 6.8125 34.0625 C6.8125 35.3825 6.8125 36.7025 6.8125 38.0625 C7.8025 38.0625 8.7925 38.0625 9.8125 38.0625 C9.8125 41.6925 9.8125 45.3225 9.8125 49.0625 C0.93937619 49.58701963 -4.23283977 49.22652296 -11.0234375 43.51953125 C-17.2464436 37.78228723 -20.2665628 32.78198477 -20.70874023 24.19628906 C-20.82829249 18.01352746 -20.61996074 12.65901209 -16.6875 7.609375 C-11.45298971 2.21128626 -7.69222958 -0.08271215 0 0 Z " fill="#030205" transform="translate(346.1875,676.9375)"/>
<path d="M0 0 C1.97933789 2.96900683 2.74678581 5.12427076 3.71166992 8.52539062 C4.03507858 9.65666382 4.35848724 10.78793701 4.69169617 11.95349121 C5.03449112 13.17540161 5.37728607 14.39731201 5.73046875 15.65625 C6.2624865 17.53697205 6.2624865 17.53697205 6.80525208 19.45568848 C7.55444442 22.10761869 8.29942477 24.76069 9.04174805 27.41455078 C9.99403186 30.81693163 10.95895387 34.21558135 11.92733288 37.61341095 C12.84870838 40.85466621 13.75762921 44.0993779 14.66796875 47.34375 C15.0168364 48.5656604 15.36570404 49.7875708 15.72514343 51.04650879 C16.1960717 52.74341858 16.1960717 52.74341858 16.67651367 54.47460938 C16.95694016 55.4714978 17.23736664 56.46838623 17.52629089 57.4954834 C18 60 18 60 17 63 C16.46858398 62.69408936 15.93716797 62.38817871 15.38964844 62.07299805 C2.33878655 54.56805381 -10.78224415 47.20695185 -24 40 C-16.47427461 26.3843784 -8.19425531 13.2187532 0 0 Z " fill="#4F4182" transform="translate(375,350)"/>
<path d="M0 0 C5.42911824 2.33808742 9.56415602 5.51935105 12 11 C12.76389444 16.33134659 12.70410107 20.56572005 10.3125 25.4375 C5.98896963 30.22843906 2.78934585 32.76755451 -3.75 33.3125 C-8.52252495 33.24231581 -11.12437123 31.75765893 -15 29 C-19.33181623 24.32619828 -20.38062049 20.56474765 -20.26953125 14.34375 C-19.72784629 9.63344599 -17.77356965 6.54991153 -14.234375 3.45703125 C-9.67710859 0.25438537 -5.52909502 -1.32869725 0 0 Z " fill="#4F4081" transform="translate(472,526)"/>
<path d="M0 0 C3.4515921 1.92492637 5.09248625 3.53627542 7.25 6.8125 C7.6625 7.410625 8.075 8.00875 8.5 8.625 C10.10260598 13.29926745 9.72974763 17.45321504 8.125 22 C5.53535548 25.88446678 2.47685959 28.69907021 -1.75 30.8125 C-7.00575165 31.3363576 -11.39526095 31.47755372 -16.1875 29.125 C-20.72365624 25.03139559 -23.4542192 21.82946415 -24.0625 15.625 C-23.61216069 10.13086043 -22.11492545 5.97860429 -17.984375 2.1953125 C-11.87918896 -2.05908879 -7.11925896 -2.254432 0 0 Z " fill="#4F4082" transform="translate(777.75,460.1875)"/>
<path d="M0 0 C3.63 0 7.26 0 11 0 C11 1.32 11 2.64 11 4 C12.32 4 13.64 4 15 4 C15 13.9 15 23.8 15 34 C18.3 34 21.6 34 25 34 C25 35.32 25 36.64 25 38 C25.99 38 26.98 38 28 38 C28 41.63 28 45.26 28 49 C11.61344222 49.75922275 11.61344222 49.75922275 6 45 C1.00720036 39.21886358 -0.15003169 34.66259401 -0.09765625 27.05078125 C-0.0962413 26.27816452 -0.09482635 25.50554779 -0.09336853 24.70951843 C-0.08777466 22.24380611 -0.07522333 19.77818485 -0.0625 17.3125 C-0.05748421 15.63997527 -0.05292144 13.96744912 -0.04882812 12.29492188 C-0.03780724 8.19657954 -0.02054684 4.09830521 0 0 Z " fill="#030205" transform="translate(478,677)"/>
<path d="M0 0 C3.63 0 7.26 0 11 0 C11 1.32 11 2.64 11 4 C12.32 4 13.64 4 15 4 C15 13.9 15 23.8 15 34 C18.3 34 21.6 34 25 34 C25 35.32 25 36.64 25 38 C25.99 38 26.98 38 28 38 C28 41.63 28 45.26 28 49 C11.61344222 49.75922275 11.61344222 49.75922275 6 45 C1.00720036 39.21886358 -0.15003169 34.66259401 -0.09765625 27.05078125 C-0.0962413 26.27816452 -0.09482635 25.50554779 -0.09336853 24.70951843 C-0.08777466 22.24380611 -0.07522333 19.77818485 -0.0625 17.3125 C-0.05748421 15.63997527 -0.05292144 13.96744912 -0.04882812 12.29492188 C-0.03780724 8.19657954 -0.02054684 4.09830521 0 0 Z " fill="#040308" transform="translate(288,677)"/>
<path d="M0 0 C1.046875 1.99609375 1.046875 1.99609375 1.75 4.4375 C1.99234375 5.24058594 2.2346875 6.04367187 2.484375 6.87109375 C3 9 3 9 3 11 C-6.75781809 13.53504998 -16.54794915 15.81664839 -26.4074707 17.91918945 C-32.37212252 19.19597107 -38.32080012 20.52801032 -44.26171875 21.91015625 C-45.68218256 22.2386453 -47.10267407 22.56701461 -48.52319336 22.89526367 C-50.62956681 23.3820817 -52.73515049 23.87148444 -54.83889771 24.36953735 C-56.80239691 24.83415891 -58.76834538 25.28839254 -60.734375 25.7421875 C-61.87100586 26.0088623 -63.00763672 26.27553711 -64.17871094 26.55029297 C-67 27 -67 27 -70 26 C-68.24788712 25.28050582 -66.49576762 24.56102778 -64.74362183 23.84161377 C-63.16695944 23.19424849 -61.59032037 22.54682644 -60.01370239 21.89935303 C-55.62300356 20.09656224 -51.23151996 18.29571963 -46.83862305 16.49829102 C-35.65975062 11.92524052 -35.65975062 11.92524052 -24.51011658 7.28153992 C-22.60684389 6.48161286 -20.70183122 5.68599737 -18.79614258 4.8918457 C-16.51874911 3.94108301 -14.24495783 2.98163317 -11.9753418 2.01245117 C-10.96898682 1.59455322 -9.96263184 1.17665527 -8.92578125 0.74609375 C-8.06380127 0.38185303 -7.20182129 0.0176123 -6.3137207 -0.35766602 C-3.73392367 -1.07386798 -2.45711161 -1.0259866 0 0 Z " fill="#524482" transform="translate(255,394)"/>
<path d="M0 0 C0.99 3.63 1.98 7.26 3 11 C-8.82360712 14.08312301 -20.70855691 16.66116718 -32.6875 19.0625 C-36.04604132 19.73858463 -39.40399069 20.41754558 -42.76171875 21.09765625 C-43.56181366 21.25843658 -44.36190857 21.41921692 -45.18624878 21.58486938 C-50.98260759 22.76007358 -56.71720393 24.1013032 -62.44458008 25.57983398 C-65.02870908 26.00472039 -66.55059322 25.85094554 -69 25 C-67.47667387 24.39066955 -65.95334543 23.78134488 -64.43000793 23.17204285 C-63.04950898 22.61981631 -61.66904767 22.06749563 -60.28862 21.51509094 C-56.39957316 19.95898443 -52.50984836 18.40460893 -48.61889648 16.85327148 C-41.49272666 14.01018258 -34.36945207 11.16229184 -27.27423096 8.24264526 C-24.5228662 7.11074476 -21.76840312 5.98649864 -19.01373291 4.8626709 C-17.71678485 4.33081225 -16.4214742 3.79494246 -15.12786865 3.25500488 C-13.3302729 2.50504973 -11.52659145 1.76973166 -9.72265625 1.03515625 C-8.70953369 0.6162915 -7.69641113 0.19742676 -6.65258789 -0.23413086 C-4 -1 -4 -1 0 0 Z " fill="#524482" transform="translate(266,428)"/>
<path d="M0 0 C0.99 0.33 1.98 0.66 3 1 C2.71125 1.70125 2.4225 2.4025 2.125 3.125 C0.98210947 6.04572025 -0.00819329 9.02457986 -1 12 C32.99 12.33 66.98 12.66 102 13 C102 13.33 102 13.66 102 14 C46.89 14 -8.22 14 -65 14 C-65 13.67 -65 13.34 -65 13 C-61.83370229 12.53909494 -58.66694713 12.08142096 -55.5 11.625 C-54.07469971 11.41919312 -54.07469971 11.41919312 -52.62060547 11.20922852 C-45.5732817 10.20103192 -38.52033833 9.31596128 -31.4453125 8.52734375 C-24.49496785 7.48403566 -24.49496785 7.48403566 -18.625 3.9375 C-14.03405279 0.54894373 -8.95005446 0.76051963 -3.4375 1.4375 C-2.633125 1.623125 -1.82875 1.80875 -1 2 C-0.67 1.34 -0.34 0.68 0 0 Z " fill="#5F5489" transform="translate(325,589)"/>
<path d="M0 0 C0.33 0.99 0.66 1.98 1 3 C1.99 3.33 2.98 3.66 4 4 C2.53252414 7.42411035 0.96740348 9.71738194 -2 12 C-4.89449949 12.2906124 -7.37949935 12.38186045 -10.25 12.25 C-11.36761719 12.22292969 -11.36761719 12.22292969 -12.5078125 12.1953125 C-14.33909701 12.14835649 -16.16971649 12.07661652 -18 12 C-18 15.3 -18 18.6 -18 22 C-17.01 22 -16.02 22 -15 22 C-15 23.32 -15 24.64 -15 26 C-13.35 26 -11.7 26 -10 26 C-12.27902003 28.80494773 -13.34505209 29.91813151 -17 30.375 C-19.83526512 30.02059186 -21.58950039 29.48338437 -24 28 C-24 27.34 -24 26.68 -24 26 C-24.99 26 -25.98 26 -27 26 C-29.11411256 21.77177488 -29.75681016 17.65939751 -29 13 C-26.98497111 9.24787724 -25.54533858 7.36355905 -22 5 C-15.97809337 4.10138215 -11.34260484 5.27186136 -6 8 C-2.21965377 4.52263974 -2.21965377 4.52263974 0 0 Z " fill="#30245B" transform="translate(408,682)"/>
<path d="M0 0 C0.86625 -0.01675781 1.7325 -0.03351562 2.625 -0.05078125 C5 0.3125 5 0.3125 6.7890625 1.625 C8.83064852 4.47004891 8.34457565 6.92417279 8 10.3125 C6.72874932 13.7917124 5.62433795 15.77735319 2.8125 18.1875 C-1.08479877 19.74641951 -3.80458195 19.65084017 -8 19.3125 C-11 17.3125 -11 17.3125 -11.65234375 15.359375 C-12.19185748 11.01370275 -12.29370423 8.88941902 -10.25 4.875 C-6.95726605 1.12494188 -4.88756204 0.02181947 0 0 Z " fill="#F7F6F8" transform="translate(672,691.6875)"/>
<path d="M0 0 C2.02734375 0.6328125 2.02734375 0.6328125 4.08984375 2.1953125 C5.44745048 5.72508999 5.73893314 8.90653257 5.02734375 12.6328125 C2.45483891 15.97706879 0.39985482 17.44981102 -3.78515625 18.0078125 C-6.97265625 17.6328125 -6.97265625 17.6328125 -9.84765625 15.6328125 C-12.21256469 12.29411822 -12.74129712 10.57380574 -12.4453125 6.57421875 C-10.79435024 -0.2070064 -6.0025251 -1.09863188 0 0 Z " fill="#4D4080" transform="translate(328.97265625,543.3671875)"/>
<path d="M0 0 C3.75979392 1.05909688 5.09536663 3.27164342 6.94140625 6.546875 C7.00958198 10.50106705 6.50792855 12.66310022 4.37890625 15.984375 C1.53956106 17.80446807 -0.71936938 18.18096702 -4.0859375 17.9921875 C-7.6302289 17.19209003 -9.06334452 15.47739731 -11.05859375 12.546875 C-11.84640655 8.1351233 -11.58834508 6.32494726 -9.05859375 2.609375 C-5.74275684 0.32973712 -3.94956664 -0.26979962 0 0 Z " fill="#504280" transform="translate(247.05859375,547.453125)"/>
<path d="M0 0 C4.04482565 3.27438267 5.69992576 7.60297837 6.328125 12.62109375 C6.6400823 20.65399419 4.81471633 25.83344413 -0.5 31.8125 C-6.40628675 36.9805009 -11.54985413 39.54413538 -19.546875 39.39453125 C-24.1104105 38.66058685 -28.15709537 36.51618755 -32 34 C-32.33 33.34 -32.66 32.68 -33 32 C-31.865625 32.33 -30.73125 32.66 -29.5625 33 C-21.44614055 34.95420254 -15.64891158 34.56787997 -8.234375 30.4921875 C-3.49098638 27.3244 -0.79221038 23.42400233 1 18 C1.47647549 11.99963917 1.30841588 5.88787147 0 0 Z " fill="#30255B" transform="translate(689,688)"/>
<path d="M0 0 C0.495 1.98 0.495 1.98 1 4 C1.99 4 2.98 4 4 4 C4.65562443 12.72344728 2.82798036 18.45503156 -1.75 25.8125 C-7.07191039 30.98657955 -14.10319729 33.42370019 -21.44921875 33.3515625 C-26.87868837 32.60324356 -32.28578758 30.08100897 -35.7890625 25.828125 C-36.18867188 25.22484375 -36.58828125 24.6215625 -37 24 C-31.35554132 24.62716208 -31.35554132 24.62716208 -29.5546875 26.515625 C-27.58775997 28.39359601 -26.62395411 28.4326244 -23.9375 28.4375 C-17.73186975 28.19493465 -11.84796582 26.47802387 -7.10546875 22.3515625 C-2.52629884 17.24874055 -0.82694587 12.5420123 -0.375 5.6875 C-0.30023438 4.61886719 -0.22546875 3.55023437 -0.1484375 2.44921875 C-0.09945312 1.64097656 -0.05046875 0.83273437 0 0 Z " fill="#33295A" transform="translate(413,694)"/>
<path d="M0 0 C1.99954746 -0.04254356 4.00041636 -0.04080783 6 0 C7 1 7 1 7.25 3.4375 C7.1675 4.283125 7.085 5.12875 7 6 C4 8 4 8 1 8 C1.2547514 9.31571603 1.52934141 10.62760376 1.8125 11.9375 C1.96332031 12.66839844 2.11414063 13.39929688 2.26953125 14.15234375 C2.63111328 15.06693359 2.63111328 15.06693359 3 16 C3.99 16.33 4.98 16.66 6 17 C7.1875 19.5625 7.1875 19.5625 8 22 C7.01 22 6.02 22 5 22 C5 20.68 5 19.36 5 18 C4.34 18 3.68 18 3 18 C3 24.93 3 31.86 3 39 C-0.96 39 -4.92 39 -9 39 C-9 37.68 -9 36.36 -9 35 C-6.36 35 -3.72 35 -1 35 C-1.00523682 34.01080566 -1.01047363 33.02161133 -1.01586914 32.00244141 C-1.03394523 28.33855084 -1.04544158 24.67466423 -1.05493164 21.01074219 C-1.05996588 19.42382139 -1.06679369 17.83690523 -1.07543945 16.25 C-1.08754482 13.97134251 -1.09323733 11.69274624 -1.09765625 9.4140625 C-1.10281754 8.70255035 -1.10797882 7.99103821 -1.11329651 7.25796509 C-1.11387171 2.22774341 -1.11387171 2.22774341 0 0 Z " fill="#292344" transform="translate(610,687)"/>
<path d="M0 0 C0.99 0 1.98 0 3 0 C3 3.3 3 6.6 3 10 C-0.3 10.66 -3.6 11.32 -7 12 C-4.69 12.33 -2.38 12.66 0 13 C0 14.32 0 15.64 0 17 C0.99 17 1.98 17 3 17 C3 20.3 3 23.6 3 27 C0.37549914 27.22119939 -2.24870486 27.42746669 -4.875 27.625 C-5.62136719 27.68945312 -6.36773437 27.75390625 -7.13671875 27.8203125 C-9.0870047 27.96087365 -11.04469467 27.98759849 -13 28 C-13.66 27.34 -14.32 26.68 -15 26 C-15 25.01 -15 24.02 -15 23 C-10.38 23 -5.76 23 -1 23 C-1 20.03 -1 17.06 -1 14 C-2.381875 14.020625 -3.76375 14.04125 -5.1875 14.0625 C-8.59298534 14.06787143 -11.68414137 13.85570545 -15 13 C-13.19587357 9.73539027 -12.16605307 8.11070205 -9 6 C-6.73828125 5.8046875 -6.73828125 5.8046875 -4.3125 5.875 C-3.10013672 5.90207031 -3.10013672 5.90207031 -1.86328125 5.9296875 C-0.94095703 5.96449219 -0.94095703 5.96449219 0 6 C0 4.02 0 2.04 0 0 Z " fill="#2F235D" transform="translate(353,681)"/>
<path d="M0 0 C3.42713483 2.95979827 4.72213155 6.09586988 5.37109375 10.54296875 C5.55085661 17.70176034 4.35022487 23.19970017 0 29 C-5.46993008 34.20542669 -10.56711173 35.76403529 -18 36 C-18 34.68 -18 33.36 -18 32 C-18.66 31.67 -19.32 31.34 -20 31 C-19.41992188 30.90203125 -18.83984375 30.8040625 -18.2421875 30.703125 C-11.49880359 29.41231224 -6.96095092 27.596935 -2.6875 21.9375 C0.06705395 17.14253572 0.12364628 13.19807634 0.0625 7.8125 C0.05798828 7.06291016 0.05347656 6.31332031 0.04882812 5.54101562 C0.03706354 3.69397617 0.01912865 1.84697787 0 0 Z " fill="#2F235B" transform="translate(580,690)"/>
<path d="M0 0 C3.29714793 0.32971479 4.6226839 0.6226839 7 3 C7.125 6.625 7.125 6.625 7 10 C4.69 10 2.38 10 0 10 C0.165 11.2375 0.33 12.475 0.5 13.75 C1.39609022 22.45848246 1.07639102 31.25747186 1 40 C-2.63 40 -6.26 40 -10 40 C-10 38.68 -10 37.36 -10 36 C-7.36 36 -4.72 36 -2 36 C-2.01047363 34.9805127 -2.02094727 33.96102539 -2.03173828 32.91064453 C-2.06788727 29.13496398 -2.09088177 25.35929879 -2.10986328 21.58349609 C-2.11993254 19.94805328 -2.13358881 18.31262851 -2.15087891 16.67724609 C-2.17508705 14.3290563 -2.18647357 11.98110412 -2.1953125 9.6328125 C-2.21079636 8.53273361 -2.21079636 8.53273361 -2.22659302 7.41043091 C-2.22699368 5.60537303 -2.12212755 3.8009217 -2 2 C-1.34 1.34 -0.68 0.68 0 0 Z " fill="#2D235A" transform="translate(443,686)"/>
<path d="M0 0 C1.010625 0.0825 2.02125 0.165 3.0625 0.25 C5.0625 3.25 5.0625 3.25 4.8125 5.8125 C4.0625 8.25 4.0625 8.25 2.0625 10.25 C0.7425 10.25 -0.5775 10.25 -1.9375 10.25 C-1.7725 11.508125 -1.6075 12.76625 -1.4375 14.0625 C-0.57834931 22.42409338 -0.85993574 30.85582351 -0.9375 39.25 C-4.5675 39.25 -8.1975 39.25 -11.9375 39.25 C-11.9375 37.93 -11.9375 36.61 -11.9375 35.25 C-9.2975 35.25 -6.6575 35.25 -3.9375 35.25 C-3.94273682 34.22527588 -3.94797363 33.20055176 -3.95336914 32.14477539 C-3.97141969 28.35604724 -3.9829322 24.56732291 -3.99243164 20.77856445 C-3.99747174 19.13630536 -4.00430378 17.49405077 -4.01293945 15.85180664 C-4.02501926 13.49624521 -4.03073139 11.14074291 -4.03515625 8.78515625 C-4.04031754 8.04660904 -4.04547882 7.30806183 -4.05079651 6.5471344 C-4.0509925 4.78101912 -3.99944719 3.01502854 -3.9375 1.25 C-2.9375 0.25 -2.9375 0.25 0 0 Z " fill="#30245C" transform="translate(721.9375,686.75)"/>
<path d="M0 0 C1.31291016 -0.03867187 1.31291016 -0.03867187 2.65234375 -0.078125 C5.0625 0.25 5.0625 0.25 8.0625 3.25 C3.7725 3.25 -0.5175 3.25 -4.9375 3.25 C-4.9375 6.55 -4.9375 9.85 -4.9375 13.25 C-3.9475 13.25 -2.9575 13.25 -1.9375 13.25 C-1.9375 14.57 -1.9375 15.89 -1.9375 17.25 C-0.2875 17.25 1.3625 17.25 3.0625 17.25 C0.78347997 20.05494773 -0.28255209 21.16813151 -3.9375 21.625 C-6.80447819 21.26662773 -8.55049046 20.8413397 -10.9375 19.25 C-12.79983425 15.52533151 -12.50880829 11.30504687 -11.9375 7.25 C-9.11791723 1.97906356 -5.80587634 0.10230619 0 0 Z " fill="#F5F4F7" transform="translate(394.9375,690.75)"/>
<path d="M0 0 C3.44970146 2.29980097 3.88163909 3.10758754 5 7 C5.16496802 9.68010949 5.23378795 12.2499358 5.1953125 14.92578125 C5.1924826 15.67337204 5.18965271 16.42096283 5.18673706 17.19120789 C5.17559469 19.5651388 5.15050162 21.93868425 5.125 24.3125 C5.11496249 25.9277289 5.10583799 27.54296376 5.09765625 29.15820312 C5.07567489 33.10561594 5.04118657 37.05274274 5 41 C1.04 41 -2.92 41 -7 41 C-7 39.68 -7 38.36 -7 37 C-4.36 37 -1.72 37 1 37 C0.67 24.79 0.34 12.58 0 0 Z " fill="#403764" transform="translate(460,685)"/>
<path d="M0 0 C7 0 7 0 9.4375 1.5625 C11.6232026 4.97219606 11.55004566 7.012169 11 11 C8.96388355 14.85407757 7.25261468 17.62818881 3 19 C2.01 19 1.02 19 0 19 C0 12.73 0 6.46 0 0 Z " fill="#EDECF1" transform="translate(559,692)"/>
<path d="M0 0 C9 1 9 1 11.0625 3.0625 C11.5265625 4.0215625 11.5265625 4.0215625 12 5 C9.03 4.67 6.06 4.34 3 4 C3 15.22 3 26.44 3 38 C-0.63 38 -4.26 38 -8 38 C-8 36.68 -8 35.36 -8 34 C-5.36 34 -2.72 34 0 34 C0 22.78 0 11.56 0 0 Z " fill="#2C2155" transform="translate(556,688)"/>
<path d="M0 0 C0.99 0 1.98 0 3 0 C4.68268168 5.04804504 4.56212419 9.32083946 2.4375 14.1875 C0.16346654 18.29671835 -2.50087653 20.5934604 -7 22 C-9.76537436 22.29058224 -12.2068078 22.19601349 -15 22 C-15 20.68 -15 19.36 -15 18 C-14.40832031 17.87625 -13.81664062 17.7525 -13.20703125 17.625 C-8.60669941 16.42426086 -5.66957963 15.31343094 -3 11.25 C-0.97807659 7.49797718 -0.2644604 4.23136645 0 0 Z " fill="#372C64" transform="translate(738,689)"/>
<path d="M0 0 C3.4375 0.875 3.4375 0.875 5.4375 3.875 C5.9478118 7.19202672 5.72449603 8.45554426 3.8125 11.25 C1.4375 12.875 1.4375 12.875 -1.625 12.875 C-4.5625 11.875 -4.5625 11.875 -6.5 10.125 C-7.5625 7.875 -7.5625 7.875 -7.4375 5.3125 C-5.82990391 0.83419661 -4.92782971 -0.17290631 0 0 Z " fill="#544981" transform="translate(292.5625,570.125)"/>
<path d="M0 0 C2.5625 2 2.5625 2 4 4 C3.33613281 4.01417969 2.67226563 4.02835938 1.98828125 4.04296875 C-4.00119647 4.36090797 -4.00119647 4.36090797 -9.0625 7.4375 C-11.50593174 10.66913553 -12.12643035 12.16131808 -12.0625 16.125 C-12.041875 17.40375 -12.02125 18.6825 -12 20 C-15.15761669 16.97967099 -15.95237776 15.72623912 -16.25 11.1875 C-16.19430139 7.35125857 -15.49416756 5.02863204 -13 2 C-8.83098482 -0.52991519 -4.76138194 -0.75133733 0 0 Z " fill="#2F235B" transform="translate(673,688)"/>
<path d="M0 0 C1.32 0 2.64 0 4 0 C4 9.9 4 19.8 4 30 C2.68 29.34 1.36 28.68 0 28 C0 18.76 0 9.52 0 0 Z " fill="#322A57" transform="translate(489,681)"/>
<path d="M0 0 C5 4 5 4 5.56762695 6.19824219 C5.54144287 6.97329102 5.51525879 7.74833984 5.48828125 8.546875 C5.47216797 9.39121094 5.45605469 10.23554687 5.43945312 11.10546875 C5.39755859 11.97816406 5.35566406 12.85085938 5.3125 13.75 C5.27866211 15.08224609 5.27866211 15.08224609 5.24414062 16.44140625 C5.1853524 18.62832829 5.09567398 20.81438097 5 23 C1.37 23 -2.26 23 -6 23 C-6 21.68 -6 20.36 -6 19 C-3.69 19 -1.38 19 1 19 C0.67 12.73 0.34 6.46 0 0 Z " fill="#372D5D" transform="translate(628,703)"/>
<path d="M0 0 C5.69547061 0.63283007 5.69547061 0.63283007 7.234375 2.48828125 C9.95702522 4.81939992 13.00141976 4.69051247 16.4375 4.875 C17.10587891 4.93429687 17.77425781 4.99359375 18.46289062 5.0546875 C21.65374674 5.25708075 23.57420293 5.27398487 26.30078125 3.51953125 C27.14189453 2.76736328 27.14189453 2.76736328 28 2 C30.75 1.8125 30.75 1.8125 33 2 C33 1.34 33 0.68 33 0 C33.99 0.33 34.98 0.66 36 1 C29.4727798 6.2681625 24.05522708 9.57642873 15.4453125 9.38671875 C10.06115533 8.53523064 4.69756242 6.0607963 1.2109375 1.828125 C0.81132812 1.22484375 0.41171875 0.6215625 0 0 Z " fill="#3D3269" transform="translate(376,718)"/>
<path d="M0 0 C2.64 0 5.28 0 8 0 C8 1.32 8 2.64 8 4 C8.99 4 9.98 4 11 4 C11 7.63 11 11.26 11 15 C3.48580833 15.44418867 -1.86103208 15.63833132 -8 11 C-8.33 10.34 -8.66 9.68 -9 9 C-3.72 9.66 1.56 10.32 7 11 C7 7.7 7 4.4 7 1 C4.69 1 2.38 1 0 1 C0 0.67 0 0.34 0 0 Z " fill="#32275C" transform="translate(345,711)"/>
<path d="M0 0 C0.99 0 1.98 0 3 0 C3 3.63 3 7.26 3 11 C-12.92938497 11.738041 -12.92938497 11.738041 -19 7 C-15.09519751 5.64137027 -11.2898224 6.10530288 -7.25 6.4375 C-6.55261719 6.48970703 -5.85523438 6.54191406 -5.13671875 6.59570312 C-3.42403797 6.72474072 -1.71194934 6.86159614 0 7 C0 4.69 0 2.38 0 0 Z " fill="#352968" transform="translate(313,715)"/>
<path d="M0 0 C0.99 0 1.98 0 3 0 C3 3.63 3 7.26 3 11 C-12.92938497 11.738041 -12.92938497 11.738041 -19 7 C-15.09519751 5.64137027 -11.2898224 6.10530288 -7.25 6.4375 C-6.55261719 6.48970703 -5.85523438 6.54191406 -5.13671875 6.59570312 C-3.42403797 6.72474072 -1.71194934 6.86159614 0 7 C0 4.69 0 2.38 0 0 Z " fill="#372C63" transform="translate(503,715)"/>
<path d="M0 0 C-0.5259375 0.928125 -0.5259375 0.928125 -1.0625 1.875 C-1.371875 2.57625 -1.68125 3.2775 -2 4 C-1.67 4.66 -1.34 5.32 -1 6 C-5.0796442 7.03597967 -9.16418941 8.05113854 -13.25 9.0625 C-14.40886719 9.35705078 -15.56773437 9.65160156 -16.76171875 9.95507812 C-17.87675781 10.22900391 -18.99179688 10.50292969 -20.140625 10.78515625 C-21.16704102 11.04176025 -22.19345703 11.29836426 -23.25097656 11.56274414 C-25.9334452 11.98941389 -27.46860856 11.89234196 -30 11 C-26.21246752 9.42671143 -22.42215986 7.86033273 -18.62915039 6.30029297 C-17.33930654 5.76865608 -16.05023565 5.23513978 -14.76196289 4.69970703 C-12.90976143 3.93027613 -11.05452554 3.16816265 -9.19921875 2.40625 C-8.08377686 1.94541016 -6.96833496 1.48457031 -5.8190918 1.00976562 C-3 0 -3 0 0 0 Z " fill="#52467D" transform="translate(227,442)"/>
<path d="M0 0 C0 0.99 0 1.98 0 3 C-4.4133555 4.03552346 -8.8311126 5.05086639 -13.25 6.0625 C-14.50425781 6.35705078 -15.75851563 6.65160156 -17.05078125 6.95507812 C-18.85869141 7.3659668 -18.85869141 7.3659668 -20.703125 7.78515625 C-21.81333008 8.04176025 -22.92353516 8.29836426 -24.06738281 8.56274414 C-26.83233818 8.97500147 -28.40356454 8.93084973 -31 8 C-26.78174978 6.26378231 -22.54904557 4.56602984 -18.3125 2.875 C-17.11431641 2.38128906 -15.91613281 1.88757813 -14.68164062 1.37890625 C-13.52470703 0.92128906 -12.36777344 0.46367187 -11.17578125 -0.0078125 C-9.58117065 -0.65194092 -9.58117065 -0.65194092 -7.9543457 -1.30908203 C-4.51374903 -2.11371707 -3.07098422 -1.63355507 0 0 Z " fill="#594C84" transform="translate(175,441)"/>
<path d="M0 0 C10.57978383 -0.22153394 21.12734208 0.44483954 31.6875 1 C33.56443993 1.09661078 35.44139299 1.19296705 37.31835938 1.2890625 C41.87906283 1.52310689 46.43957479 1.76059757 51 2 C51 2.33 51 2.66 51 3 C34.17 3 17.34 3 0 3 C0 2.01 0 1.02 0 0 Z " fill="#52497A" transform="translate(797,597)"/>
<path d="M0 0 C0.99 0 1.98 0 3 0 C3 9.9 3 19.8 3 30 C2.01 29.67 1.02 29.34 0 29 C0 19.43 0 9.86 0 0 Z " fill="#3A2F62" transform="translate(300,681)"/>
<path d="M0 0 C2 1.4375 2 1.4375 4 4 C4.7369869 8.67044027 4.63891204 12.96193326 2 17 C1.01 17.33 0.02 17.66 -1 18 C-2.32 16.68 -3.64 15.36 -5 14 C-4.35546875 13.62230469 -3.7109375 13.24460937 -3.046875 12.85546875 C-0.75970238 11.13940092 -0.75970238 11.13940092 -0.390625 8.30078125 C-0.34421875 7.31464844 -0.2978125 6.32851563 -0.25 5.3125 C-0.19328125 4.31863281 -0.1365625 3.32476563 -0.078125 2.30078125 C-0.05234375 1.54152344 -0.0265625 0.78226563 0 0 Z " fill="#392F67" transform="translate(628,684)"/>
<path d="M0 0 C0.6875 2.0625 0.6875 2.0625 1 4 C-2.76800136 4.86700138 -6.53975896 5.71638259 -10.3125 6.5625 C-11.38435547 6.80935547 -12.45621094 7.05621094 -13.56054688 7.31054688 C-14.58857422 7.53935547 -15.61660156 7.76816406 -16.67578125 8.00390625 C-17.62364502 8.21861572 -18.57150879 8.4333252 -19.5480957 8.65454102 C-22 9 -22 9 -25 8 C-21.40223196 6.46369915 -17.79588889 4.94866722 -14.1875 3.4375 C-12.65125977 2.78104492 -12.65125977 2.78104492 -11.08398438 2.11132812 C-10.10107422 1.70205078 -9.11816406 1.29277344 -8.10546875 0.87109375 C-6.74651489 0.29766235 -6.74651489 0.29766235 -5.36010742 -0.28735352 C-3 -1 -3 -1 0 0 Z " fill="#5B4E85" transform="translate(210,412)"/>
<path d="M0 0 C3.29714793 0.32971479 4.6226839 0.6226839 7 3 C7.125 6.625 7.125 6.625 7 10 C5.02 10 3.04 10 1 10 C1 9.01 1 8.02 1 7 C0.34 7 -0.32 7 -1 7 C-1.625 4.625 -1.625 4.625 -2 2 C-1.34 1.34 -0.68 0.68 0 0 Z " fill="#302659" transform="translate(443,686)"/>
<path d="M0 0 C0.33 0.99 0.66 1.98 1 3 C1.66 3 2.32 3 3 3 C3 4.32 3 5.64 3 7 C0.5431099 7.38855926 -1.91441833 7.76130088 -4.375 8.125 C-5.42300781 8.29322266 -5.42300781 8.29322266 -6.4921875 8.46484375 C-8.31787914 8.72816466 -10.1598762 8.8718116 -12 9 C-12.66 8.34 -13.32 7.68 -14 7 C-14 6.01 -14 5.02 -14 4 C-9.38 4 -4.76 4 0 4 C0 2.68 0 1.36 0 0 Z " fill="#2B1E56" transform="translate(352,700)"/>
<path d="M0 0 C0.33 0 0.66 0 1 0 C1 6.93 1 13.86 1 21 C-2.96 21 -6.92 21 -11 21 C-11 19.68 -11 18.36 -11 17 C-7.37 17 -3.74 17 0 17 C0 11.39 0 5.78 0 0 Z " fill="#413669" transform="translate(612,705)"/>
<path d="M0 0 C1.31291016 -0.03867187 1.31291016 -0.03867187 2.65234375 -0.078125 C5.0625 0.25 5.0625 0.25 8.0625 3.25 C3.7725 3.25 -0.5175 3.25 -4.9375 3.25 C-4.9375 6.55 -4.9375 9.85 -4.9375 13.25 C-5.2675 13.25 -5.5975 13.25 -5.9375 13.25 C-6.2675 10.28 -6.5975 7.31 -6.9375 4.25 C-8.9175 5.24 -8.9175 5.24 -10.9375 6.25 C-7.3450056 1.57975729 -5.89174065 0.10381922 0 0 Z " fill="#E9E5EE" transform="translate(394.9375,690.75)"/>
<path d="M0 0 C5.28 0.99 10.56 1.98 16 3 C16 3.66 16 4.32 16 5 C17.98 5 19.96 5 22 5 C19.68449829 7.31550171 19.15282885 7.34178912 16 7.4375 C10.33028252 7.33625505 5.69233801 5.07236417 1 2 C0.67 1.34 0.34 0.68 0 0 Z " fill="#423967" transform="translate(656,720)"/>
<path d="M0 0 C1.65 0.33 3.3 0.66 5 1 C4.67 1.66 4.34 2.32 4 3 C6.31 3.33 8.62 3.66 11 4 C11 5.32 11 6.64 11 8 C11.99 8 12.98 8 14 8 C14 11.3 14 14.6 14 18 C12.02 18 10.04 18 8 18 C8 17.67 8 17.34 8 17 C9.65 17 11.3 17 13 17 C13 15.68 13 14.36 13 13 C12.34 13 11.68 13 11 13 C10.67 10.36 10.34 7.72 10 5 C7.03 5 4.06 5 1 5 C1 4.34 1 3.68 1 3 C0.34 2.67 -0.32 2.34 -1 2 C-0.67 1.34 -0.34 0.68 0 0 Z " fill="#382E5D" transform="translate(342,690)"/>
<path d="M0 0 C0.33 0 0.66 0 1 0 C1 4.29 1 8.58 1 13 C1.66 13 2.32 13 3 13 C3 14.32 3 15.64 3 17 C-0.3 17 -3.6 17 -7 17 C-7 15.68 -7 14.36 -7 13 C-4.69 13 -2.38 13 0 13 C0 8.71 0 4.42 0 0 Z " fill="#2C2157" transform="translate(629,709)"/>
<path d="M0 0 C2.4164124 0.48328248 4.65832183 1.21944061 7 2 C6.25 6.75 6.25 6.75 4 9 C3.01 9 2.02 9 1 9 C-1.14809171 5.77786243 -1.29386153 4.72224599 -1 1 C-0.67 0.67 -0.34 0.34 0 0 Z " fill="#4E4473" transform="translate(720,688)"/>
<path d="M0 0 C0.99 0 1.98 0 3 0 C4.1577506 3.47325181 4.06866652 6.36067448 4 10 C0.04 11.98 0.04 11.98 -4 14 C-3.566875 13.0409375 -3.566875 13.0409375 -3.125 12.0625 C-1.6752275 8.11589708 -0.84221938 4.1125393 0 0 Z " fill="#3C3267" transform="translate(738,689)"/>
<path d="M0 0 C0.66 0.99 1.32 1.98 2 3 C-5.59 3 -13.18 3 -21 3 C-14.74649811 -0.12675094 -6.97539379 -1.07117565 0 0 Z " fill="#584F7F" transform="translate(291,599)"/>
<path d="M0 0 C2.50298434 2.93828597 3.46930939 5.17902761 4 9 C5.32 9.33 6.64 9.66 8 10 C7 11 7 11 3.5625 11.1875 C0 11 0 11 -2 9 C-2.25 5.5 -2.25 5.5 -2 2 C-1.34 1.34 -0.68 0.68 0 0 Z " fill="#54497F" transform="translate(291,458)"/>
<path d="M0 0 C0.99 0.33 1.98 0.66 3 1 C3 1.66 3 2.32 3 3 C2.01 3.66 1.02 4.32 0 5 C-0.28875 5.763125 -0.5775 6.52625 -0.875 7.3125 C-2.89364421 12.13481672 -6.36784147 14.84161124 -11 17 C-3.70159453 5.47835991 -3.70159453 5.47835991 0 0 Z " fill="#574B83" transform="translate(317,409)"/>
<path d="M0 0 C1.4540625 0.0309375 1.4540625 0.0309375 2.9375 0.0625 C3.2675 1.0525 3.5975 2.0425 3.9375 3.0625 C0.9675 2.5675 0.9675 2.5675 -2.0625 2.0625 C-1.876875 3.17625 -1.69125 4.29 -1.5 5.4375 C-0.85927193 10.40314255 -1.40458963 15.12311137 -2.0625 20.0625 C-2.7225 20.0625 -3.3825 20.0625 -4.0625 20.0625 C-4.09138514 16.91668577 -4.10925923 13.77090531 -4.125 10.625 C-4.13337891 9.72716797 -4.14175781 8.82933594 -4.15039062 7.90429688 C-4.15361328 7.05029297 -4.15683594 6.19628906 -4.16015625 5.31640625 C-4.16801147 4.13026733 -4.16801147 4.13026733 -4.17602539 2.92016602 C-3.98010202 -0.28581445 -3.26361999 0.06660449 0 0 Z " fill="#291F4F" transform="translate(722.0625,686.9375)"/>
<path d="M0 0 C0.66 0 1.32 0 2 0 C2 5.61 2 11.22 2 17 C1.01 17 0.02 17 -1 17 C-1.02709444 14.91673869 -1.04643873 12.83337559 -1.0625 10.75 C-1.07410156 9.58984375 -1.08570313 8.4296875 -1.09765625 7.234375 C-1.01782092 4.59022872 -0.78643778 2.50173909 0 0 Z " fill="#2E2457" transform="translate(610,705)"/>
<path d="M0 0 C1.99954746 -0.04254356 4.00041636 -0.04080783 6 0 C7 1 7 1 7.125 3.5 C7 6 7 6 6 7 C4.00041636 7.04080783 1.99954746 7.04254356 0 7 C0 4.69 0 2.38 0 0 Z " fill="#574F7B" transform="translate(610,687)"/>
<path d="M0 0 C0.33 0 0.66 0 1 0 C1 11.55 1 23.1 1 35 C-1.31 35 -3.62 35 -6 35 C-5.360625 34.690625 -4.72125 34.38125 -4.0625 34.0625 C-2.06389179 33.1654837 -2.06389179 33.1654837 -1 32 C-0.92467759 30.22804031 -0.91687527 28.45312744 -0.9375 26.6796875 C-0.94523437 25.5865625 -0.95296875 24.4934375 -0.9609375 23.3671875 C-0.98671704 21.06249705 -1.01275332 18.75780946 -1.0390625 16.453125 C-1.0784182 10.85149633 -1.02292948 5.51422922 0 0 Z " fill="#020013" transform="translate(460,687)"/>
<path d="M0 0 C1.65 0 3.3 0 5 0 C5.33 2.31 5.66 4.62 6 7 C2.375 10 2.375 10 -1 10 C-1 8.68 -1 7.36 -1 6 C-0.34 5.67 0.32 5.34 1 5 C0.67 3.35 0.34 1.7 0 0 Z " fill="#4B3E82" transform="translate(290,572)"/>
<path d="M0 0 C0.33 1.65 0.66 3.3 1 5 C-3.07369424 7.03684712 -5.58937864 7.0257259 -10 6 C-9.67 5.01 -9.34 4.02 -9 3 C-2.88888889 0 -2.88888889 0 0 0 Z " fill="#2F2460" transform="translate(682,719)"/>
<path d="M0 0 C0 4.95 0 9.9 0 15 C-3.31723973 11.68276027 -4.15105766 10.48538592 -4.25 6 C-4.27578125 5.29875 -4.3015625 4.5975 -4.328125 3.875 C-4.21984375 3.25625 -4.1115625 2.6375 -4 2 C-1 0 -1 0 0 0 Z " fill="#2F2459" transform="translate(661,693)"/>
<path d="M0 0 C2.64 0 5.28 0 8 0 C8 1.32 8 2.64 8 4 C8.99 4 9.98 4 11 4 C11 7.63 11 11.26 11 15 C9.02 15 7.04 15 5 15 C5 14.67 5 14.34 5 14 C6.65 14 8.3 14 10 14 C9.34 13.01 8.68 12.02 8 11 C7.5859375 8.51953125 7.5859375 8.51953125 7.375 5.8125 C7.30023438 4.91144531 7.22546875 4.01039063 7.1484375 3.08203125 C7.07496094 2.05142578 7.07496094 2.05142578 7 1 C4.69 1 2.38 1 0 1 C0 0.67 0 0.34 0 0 Z " fill="#494166" transform="translate(345,711)"/>
<path d="M0 0 C-0.71428571 8.57142857 -0.71428571 8.57142857 -4 12 C-6 10 -6 10 -6.125 7.375 C-6.08375 6.59125 -6.0425 5.8075 -6 5 C-5.01 4.67 -4.02 4.34 -3 4 C-3 3.01 -3 2.02 -3 1 C-1 0 -1 0 0 0 Z " fill="#3B3068" transform="translate(695,704)"/>
<path d="M0 0 C0.99 0.66 1.98 1.32 3 2 C2.01 3.485 2.01 3.485 1 5 C0.54398739 7.50896686 0.54398739 7.50896686 0.375 10.1875 C0.30023438 11.08855469 0.22546875 11.98960937 0.1484375 12.91796875 C0.09945313 13.60503906 0.05046875 14.29210937 0 15 C-0.66 15 -1.32 15 -2 15 C-2.83796731 10.34462607 -3.0161692 6.62921525 -2 2 C-1.34 2 -0.68 2 0 2 C0 1.34 0 0.68 0 0 Z " fill="#352B5C" transform="translate(383,693)"/>
<path d="M0 0 C0.66 0 1.32 0 2 0 C2 0.66 2 1.32 2 2 C3.32 2.33 4.64 2.66 6 3 C4.68 3 3.36 3 2 3 C2.02320313 3.91523437 2.04640625 4.83046875 2.0703125 5.7734375 C2.08835937 6.96195313 2.10640625 8.15046875 2.125 9.375 C2.14820313 10.55835938 2.17140625 11.74171875 2.1953125 12.9609375 C2 16 2 16 0 18 C0 12.06 0 6.12 0 0 Z " fill="#362867" transform="translate(557,689)"/>
<path d="M0 0 C0.66 1.32 1.32 2.64 2 4 C-0.24743045 4.53181175 -2.49807102 5.05007126 -4.75 5.5625 C-6.62945312 5.99755859 -6.62945312 5.99755859 -8.546875 6.44140625 C-12 7 -12 7 -16 6 C-10.72 4.02 -5.44 2.04 0 0 Z " fill="#6F688C" transform="translate(160,443)"/>
<path d="M0 0 C3.53918835 3.53918835 4.85850568 5.90305418 5.1953125 10.89453125 C5.16050781 12.33892578 5.16050781 12.33892578 5.125 13.8125 C5.10695313 14.78832031 5.08890625 15.76414062 5.0703125 16.76953125 C5.03550781 17.87361328 5.03550781 17.87361328 5 19 C4.67 19 4.34 19 4 19 C3.67 16.36 3.34 13.72 3 11 C2.01 11.495 2.01 11.495 1 12 C0.67 8.04 0.34 4.08 0 0 Z " fill="#473E67" transform="translate(580,690)"/>
<path d="M0 0 C8.19256018 -0.63019694 8.19256018 -0.63019694 11.5625 2 C12.036875 2.66 12.51125 3.32 13 4 C9.37 4.33 5.74 4.66 2 5 C2 4.01 2 3.02 2 2 C1.34 1.34 0.68 0.68 0 0 Z " fill="#3C3361" transform="translate(664,688)"/>
<path d="M0 0 C3.3 0 6.6 0 10 0 C10 0.99 10 1.98 10 3 C6.7 3.33 3.4 3.66 0 4 C0 2.68 0 1.36 0 0 Z " fill="#362B63" transform="translate(453,722)"/>
<path d="M0 0 C1.88391785 3.26545761 2.49287967 6.28111761 3 10 C0.36 8.68 -2.28 7.36 -5 6 C-4.34 5.67 -3.68 5.34 -3 5 C-2.30062468 3.68352881 -1.63270867 2.34977849 -1 1 C-0.67 0.67 -0.34 0.34 0 0 Z " fill="#5F5686" transform="translate(390,403)"/>
<path d="M0 0 C0 2.31 0 4.62 0 7 C-3.77545388 5.90931332 -6.47043472 5.0916909 -9 2 C-2.25 0 -2.25 0 0 0 Z " fill="#5F5585" transform="translate(280,369)"/>
<path d="M0 0 C0.99 0 1.98 0 3 0 C3 3.63 3 7.26 3 11 C0.03 11 -2.94 11 -6 11 C-6 10.67 -6 10.34 -6 10 C-3.36 10 -0.72 10 2 10 C2 9.01 2 8.02 2 7 C1.34 7 0.68 7 0 7 C0 4.69 0 2.38 0 0 Z " fill="#302655" transform="translate(503,715)"/>
<path d="M0 0 C0.33 0.99 0.66 1.98 1 3 C1.66 3.33 2.32 3.66 3 4 C1.73160474 4.50615298 0.46016898 5.00469099 -0.8125 5.5 C-1.87404297 5.91765625 -1.87404297 5.91765625 -2.95703125 6.34375 C-5 7 -5 7 -8 7 C-8 6.01 -8 5.02 -8 4 C-5.36 2.68 -2.72 1.36 0 0 Z " fill="#2D215B" transform="translate(733,703)"/>
<path d="M0 0 C0 1.33333333 0 2.66666667 0 4 C-1.258125 4.04125 -2.51625 4.0825 -3.8125 4.125 C-4.52019531 4.14820313 -5.22789062 4.17140625 -5.95703125 4.1953125 C-8 4 -8 4 -11 2 C-10.01 1.67 -9.02 1.34 -8 1 C-7.34 1.33 -6.68 1.66 -6 2 C-6 1.34 -6 0.68 -6 0 C-3.50907189 -1.24546405 -2.58919267 -0.7767578 0 0 Z " fill="#594B87" transform="translate(472,555)"/>
<path d="M0 0 C6.625 0.75 6.625 0.75 10 3 C8.02 3 6.04 3 4 3 C4 3.66 4 4.32 4 5 C3.01 5.33 2.02 5.66 1 6 C0.34 5.34 -0.32 4.68 -1 4 C-0.625 1.875 -0.625 1.875 0 0 Z " fill="#5B4F84" transform="translate(534,287)"/>
<path d="M0 0 C4.20423147 0.46713683 6.16001302 0.91305763 9 4 C11.59915538 5.19027984 11.59915538 5.19027984 14 6 C12.02 6.99 12.02 6.99 10 8 C8.51714758 7.04737966 7.03881799 6.08771595 5.5625 5.125 C4.73878906 4.59132813 3.91507812 4.05765625 3.06640625 3.5078125 C1 2 1 2 0 0 Z " fill="#383254" transform="translate(376,718)"/>
<path d="M0 0 C0.99 0 1.98 0 3 0 C3 3.63 3 7.26 3 11 C0.03 11 -2.94 11 -6 11 C-6 10.67 -6 10.34 -6 10 C-3.36 10 -0.72 10 2 10 C2 8.68 2 7.36 2 6 C1.34 6 0.68 6 0 6 C0 4.02 0 2.04 0 0 Z " fill="#2F2757" transform="translate(313,715)"/>
<path d="M0 0 C0.33 0.66 0.66 1.32 1 2 C1.66 2 2.32 2 3 2 C2.67 6.29 2.34 10.58 2 15 C1.34 15 0.68 15 0 15 C0 10.05 0 5.1 0 0 Z " fill="#29224D" transform="translate(441,691)"/>
<path d="M0 0 C2.475 0.99 2.475 0.99 5 2 C5.75 5.25 5.75 5.25 6 9 C4.3125 11.5 4.3125 11.5 2 13 C-0.25 12.75 -0.25 12.75 -2 12 C-1.175 11.649375 -0.35 11.29875 0.5 10.9375 C1.325 10.298125 2.15 9.65875 3 9 C3.41725678 5.37400578 3.41725678 5.37400578 3 2 C2.01 1.67 1.02 1.34 0 1 C0 0.67 0 0.34 0 0 Z " fill="#655C87" transform="translate(292,570)"/>
<path d="M0 0 C2.64 0 5.28 0 8 0 C7.34 1.65 6.68 3.3 6 5 C3.03 4.505 3.03 4.505 0 4 C0 2.68 0 1.36 0 0 Z " fill="#3A2F5F" transform="translate(393,704)"/>
<path d="M0 0 C0.99 0 1.98 0 3 0 C3 1.98 3 3.96 3 6 C1.02 6 -0.96 6 -3 6 C-2.42655063 3.13275314 -2.1385485 2.1385485 0 0 Z " fill="#EBE7EF" transform="translate(447,690)"/>
<path d="M0 0 C1.98 0.66 3.96 1.32 6 2 C6 3.65 6 5.3 6 7 C4.68 7.33 3.36 7.66 2 8 C1.34 5.36 0.68 2.72 0 0 Z " fill="#5C5181" transform="translate(265,380)"/>
<path d="M0 0 C5.94 0.33 11.88 0.66 18 1 C18 1.33 18 1.66 18 2 C16.98679687 2.09087891 16.98679687 2.09087891 15.953125 2.18359375 C15.06109375 2.26738281 14.1690625 2.35117187 13.25 2.4375 C12.36828125 2.51871094 11.4865625 2.59992187 10.578125 2.68359375 C8.03747773 2.89209551 8.03747773 2.89209551 5.921875 3.78515625 C5.28765625 3.85605469 4.6534375 3.92695312 4 4 C2.68 2.68 1.36 1.36 0 0 Z " fill="#372E59" transform="translate(294,721)"/>
<path d="M0 0 C1.8871875 0.061875 1.8871875 0.061875 3.8125 0.125 C3.8125 0.455 3.8125 0.785 3.8125 1.125 C0.5125 1.785 -2.7875 2.445 -6.1875 3.125 C-5.8575 4.445 -5.5275 5.765 -5.1875 7.125 C-6.8375 7.125 -8.4875 7.125 -10.1875 7.125 C-7.57239299 2.3929016 -5.64560531 -0.18510181 0 0 Z " fill="#281E4E" transform="translate(348.1875,686.875)"/>
<path d="M0 0 C0.33 0.99 0.66 1.98 1 3 C-0.93475671 3.53093324 -2.87293155 4.04942317 -4.8125 4.5625 C-6.43091797 4.99755859 -6.43091797 4.99755859 -8.08203125 5.44140625 C-11 6 -11 6 -14 5 C-12.04350603 4.16235732 -10.08474444 3.33000941 -8.125 2.5 C-6.48917969 1.80390625 -6.48917969 1.80390625 -4.8203125 1.09375 C-2 0 -2 0 0 0 Z " fill="#726B8C" transform="translate(199,415)"/>
<path d="M0 0 C-1.95649397 0.83764268 -3.91525556 1.66999059 -5.875 2.5 C-6.96554688 2.9640625 -8.05609375 3.428125 -9.1796875 3.90625 C-12 5 -12 5 -14 5 C-14 4.34 -14 3.68 -14 3 C-14.66 2.67 -15.32 2.34 -16 2 C-13.71022755 1.47090114 -11.41810812 0.95194981 -9.125 0.4375 C-7.84882813 0.14746094 -6.57265625 -0.14257812 -5.2578125 -0.44140625 C-2 -1 -2 -1 0 0 Z " fill="#DAD4EB" transform="translate(258,406)"/>
<path d="M0 0 C1.32 0.66 2.64 1.32 4 2 C3.67 2.99 3.34 3.98 3 5 C2.01 5.33 1.02 5.66 0 6 C-1.66933058 6.6599679 -3.3364521 7.32558869 -5 8 C-4.45773019 4.20411134 -2.79872437 2.52788007 0 0 Z " fill="#5A4E88" transform="translate(602,297)"/>
<path d="M0 0 C2.8125 -0.1875 2.8125 -0.1875 6 0 C6.99 0.99 7.98 1.98 9 3 C4.545 3.495 4.545 3.495 0 4 C0 2.68 0 1.36 0 0 Z " fill="#41356A" transform="translate(562,722)"/>
<path d="M0 0 C-1.98 2.97 -1.98 2.97 -4 6 C-5.32 5.67 -6.64 5.34 -8 5 C-8 4.01 -8 3.02 -8 2 C-4.77208445 -0.1519437 -3.71599191 -0.20086443 0 0 Z " fill="#3A2D66" transform="translate(582,715)"/>
<path d="M0 0 C1 3 1 3 0 6 C-0.66 6 -1.32 6 -2 6 C-1.95875 6.94875 -1.9175 7.8975 -1.875 8.875 C-2 12 -2 12 -4 14 C-4.43177893 7.73920552 -3.92739438 4.90924297 0 0 Z " fill="#261D49" transform="translate(383,689)"/>
<path d="M0 0 C1.65 0.33 3.3 0.66 5 1 C4.67 1.66 4.34 2.32 4 3 C6.31 3.33 8.62 3.66 11 4 C10.67 5.32 10.34 6.64 10 8 C10 7.01 10 6.02 10 5 C7.03 5 4.06 5 1 5 C1 4.34 1 3.68 1 3 C0.34 2.67 -0.32 2.34 -1 2 C-0.67 1.34 -0.34 0.68 0 0 Z " fill="#524C6E" transform="translate(342,690)"/>
<path d="M0 0 C0 3 0 3 -1.3203125 4.640625 C-6.23973881 9.02764586 -6.23973881 9.02764586 -10.4375 8.875 C-11.7059375 8.441875 -11.7059375 8.441875 -13 8 C-10.65578881 6.8278944 -8.31055639 5.67638361 -5.9375 4.5625 C-3.41035794 3.2182755 -1.83620604 2.14224039 0 0 Z " fill="#2A1F51" transform="translate(407,715)"/>
<path d="M0 0 C0.33 0 0.66 0 1 0 C1.125 5.75 1.125 5.75 0 8 C0.66 8.33 1.32 8.66 2 9 C-0.64 9.66 -3.28 10.32 -6 11 C-5.47599609 10.18595703 -5.47599609 10.18595703 -4.94140625 9.35546875 C-4.25884766 8.28232422 -4.25884766 8.28232422 -3.5625 7.1875 C-3.11003906 6.47980469 -2.65757812 5.77210938 -2.19140625 5.04296875 C-0.85913661 2.91865448 -0.85913661 2.91865448 0 0 Z " fill="#2B2054" transform="translate(580,706)"/>
<path d="M0 0 C3.18616521 2.94451785 4.55828766 5.89111984 6 10 C5.6875 12.4375 5.6875 12.4375 5 14 C2.42853943 11.42853943 2.19882003 9.3949583 1.375 5.875 C1.11460937 4.77929688 0.85421875 3.68359375 0.5859375 2.5546875 C0.39257812 1.71164062 0.19921875 0.86859375 0 0 Z " fill="#403860" transform="translate(689,688)"/>
<path d="M0 0 C0 1.65 0 3.3 0 5 C-0.99 5 -1.98 5 -3 5 C-3 5.66 -3 6.32 -3 7 C-4.32 6.67 -5.64 6.34 -7 6 C-3.76923077 0 -3.76923077 0 0 0 Z " fill="#2E2162" transform="translate(412,713)"/>
<path d="M0 0 C0.99 1.32 1.98 2.64 3 4 C2.67 4.99 2.34 5.98 2 7 C1.4225 6.79375 0.845 6.5875 0.25 6.375 C-2.39517786 5.70744585 -2.39517786 5.70744585 -6 8 C-4.02 5.36 -2.04 2.72 0 0 Z " fill="#2C2156" transform="translate(688,711)"/>
<path d="M0 0 C0.66 0 1.32 0 2 0 C2 0.99 2 1.98 2 3 C2.928125 2.67 3.85625 2.34 4.8125 2 C8 1 8 1 11 1 C11 1.66 11 2.32 11 3 C8.24921116 3.91692961 6.64051087 4.10886083 3.8125 4.0625 C1.9253125 4.0315625 1.9253125 4.0315625 0 4 C0 2.68 0 1.36 0 0 Z " fill="#423965" transform="translate(723,707)"/>
<path d="M0 0 C0.66 0.33 1.32 0.66 2 1 C2 2.65 2 4.3 2 6 C-1 6 -1 6 -2.6875 4.5 C-3.120625 4.005 -3.55375 3.51 -4 3 C-2.68 2.01 -1.36 1.02 0 0 Z " fill="#2B2156" transform="translate(627,695)"/>
<path d="M0 0 C0.66 0.99 1.32 1.98 2 3 C0.35 4.65 -1.3 6.3 -3 8 C-3.66 7.67 -4.32 7.34 -5 7 C-3.70700306 4.11562221 -2.34058637 2.12780579 0 0 Z " fill="#5C5186" transform="translate(417,479)"/>
<path d="M0 0 C0.33 0.99 0.66 1.98 1 3 C-0.41377782 3.36552803 -1.83120576 3.71695495 -3.25 4.0625 C-4.03890625 4.25972656 -4.8278125 4.45695312 -5.640625 4.66015625 C-8.10394822 5.01497267 -9.65604132 4.76877544 -12 4 C-10.3767313 3.3291288 -8.75132422 2.66342971 -7.125 2 C-6.22007812 1.62875 -5.31515625 1.2575 -4.3828125 0.875 C-2 0 -2 0 0 0 Z " fill="#6F698E" transform="translate(209,449)"/>
<path d="M0 0 C0.66 0.66 1.32 1.32 2 2 C1.67 2.99 1.34 3.98 1 5 C-1.31 5.33 -3.62 5.66 -6 6 C-4 4 -2 2 0 0 Z " fill="#595080" transform="translate(776,433)"/>
<path d="M0 0 C-1.90401138 1.90401138 -3.33425686 2.93520439 -6.046875 3.19921875 C-8.03233273 3.1886578 -10.0169914 3.09915043 -12 3 C-8.2391768 -0.7608232 -5.0273023 -0.25136512 0 0 Z " fill="#E2DEEE" transform="translate(356,691)"/>
<path d="M0 0 C0 3.3 0 6.6 0 10 C-0.33 10 -0.66 10 -1 10 C-1 8.02 -1 6.04 -1 4 C-2.98 4.33 -4.96 4.66 -7 5 C-2.25 0 -2.25 0 0 0 Z " fill="#63598A" transform="translate(733,470)"/>
<path d="M0 0 C2.31 0.33 4.62 0.66 7 1 C7 1.66 7 2.32 7 3 C2.545 3.495 2.545 3.495 -2 4 C-1.34 2.68 -0.68 1.36 0 0 Z " fill="#50457B" transform="translate(162,442)"/>
<path d="M0 0 C0.33 0.99 0.66 1.98 1 3 C-0.21484375 4.82421875 -0.21484375 4.82421875 -1.9375 6.6875 C-2.50339844 7.31011719 -3.06929688 7.93273437 -3.65234375 8.57421875 C-4.09707031 9.04472656 -4.54179687 9.51523437 -5 10 C-5.99 9.34 -6.98 8.68 -8 8 C-6.50260417 6.79557292 -5.00520833 5.59114583 -3.5078125 4.38671875 C-1.74707893 2.87729455 -1.74707893 2.87729455 0 0 Z " fill="#53477D" transform="translate(499,564)"/>
<path d="M0 0 C0 0.66 0 1.32 0 2 C-1.43640171 2.19573608 -2.87419504 2.38127816 -4.3125 2.5625 C-5.11300781 2.66691406 -5.91351562 2.77132813 -6.73828125 2.87890625 C-9 3 -9 3 -12 2 C-8.09971775 -0.60018816 -4.52565431 -0.15085514 0 0 Z " fill="#554A7A" transform="translate(774,459)"/>
<path d="M0 0 C0.33 0.66 0.66 1.32 1 2 C1.66 2 2.32 2 3 2 C2.34 3.32 1.68 4.64 1 6 C0.01 6 -0.98 6 -2 6 C-2.33 5.34 -2.66 4.68 -3 4 C-2.01 2.68 -1.02 1.36 0 0 Z " fill="#554A82" transform="translate(589,323)"/>
<path d="M0 0 C2.75 -0.25 2.75 -0.25 6 0 C8.375 2 8.375 2 10 4 C6.25 5.125 6.25 5.125 4 4 C4 3.34 4 2.68 4 2 C2.68 1.34 1.36 0.68 0 0 Z " fill="#61568A" transform="translate(610,290)"/>
<path d="M0 0 C0.33 0 0.66 0 1 0 C1 1.65 1 3.3 1 5 C-2.63 5.33 -6.26 5.66 -10 6 C-6 4 -6 4 -3.3125 3 C-0.84572401 2.22765821 -0.84572401 2.22765821 0 0 Z " fill="#3B2F6C" transform="translate(354,720)"/>
<path d="M0 0 C0.99 0.33 1.98 0.66 3 1 C-0.96 4.465 -0.96 4.465 -5 8 C-5.66 7.67 -6.32 7.34 -7 7 C-4.9413783 3.91206745 -4.1446688 3.52161393 -1 2 C-0.67 1.34 -0.34 0.68 0 0 Z " fill="#060218" transform="translate(685,712)"/>
<path d="M0 0 C0.66 0 1.32 0 2 0 C2.33 1.65 2.66 3.3 3 5 C2.01 5.495 2.01 5.495 1 6 C-1.03144641 5.06553465 -3.03533587 4.06775224 -5 3 C-5 2.67 -5 2.34 -5 2 C-3.35 2 -1.7 2 0 2 C0 1.34 0 0.68 0 0 Z " fill="#564984" transform="translate(370,395)"/>
<path d="M0 0 C0.33 0.66 0.66 1.32 1 2 C0.0625 4.625 0.0625 4.625 -1 7 C-2.98 6.01 -4.96 5.02 -7 4 C-6.1028125 3.566875 -6.1028125 3.566875 -5.1875 3.125 C-2.80672208 1.95257974 -2.80672208 1.95257974 0 0 Z " fill="#5E528D" transform="translate(358,386)"/>
<path d="M0 0 C0.99 0.99 1.98 1.98 3 3 C2.69858214 6.11465126 1.43431413 8.13137174 0 11 C0 7.37 0 3.74 0 0 Z " fill="#2B234E" transform="translate(628,684)"/>
<path d="M0 0 C1.98 0 3.96 0 6 0 C3.64722731 2.72426311 1.37503669 3.8141763 -2 5 C-2 4.01 -2 3.02 -2 2 C-1.34 2 -0.68 2 0 2 C0 1.34 0 0.68 0 0 Z " fill="#554B7E" transform="translate(797,528)"/>
<path d="M0 0 C2.475 0.99 2.475 0.99 5 2 C2.82575883 4.50037734 1.26954202 5.43628586 -2 6 C-1.49396008 3.83125748 -1.00016187 2.00032373 0 0 Z " fill="#564984" transform="translate(367,409)"/>
<path d="M0 0 C2.97 0.495 2.97 0.495 6 1 C6 1.66 6 2.32 6 3 C4.02 3.33 2.04 3.66 0 4 C0 2.68 0 1.36 0 0 Z " fill="#352C60" transform="translate(548,722)"/>
<path d="M0 0 C2.6875 1.375 2.6875 1.375 5 3 C5 3.33 5 3.66 5 4 C-0.75 4.125 -0.75 4.125 -3 3 C-3 2.34 -3 1.68 -3 1 C-2.01 0.67 -1.02 0.34 0 0 Z " fill="#554883" transform="translate(421,598)"/>
<path d="M0 0 C-1.0975223 2.99324263 -1.67682892 3.84610901 -4.625 5.25 C-5.40875 5.4975 -6.1925 5.745 -7 6 C-3.61538462 0 -3.61538462 0 0 0 Z " fill="#5B5080" transform="translate(324,543)"/>
<path d="M0 0 C0.556875 0.185625 1.11375 0.37125 1.6875 0.5625 C4.399133 1.07551165 6.34371039 0.6640724 9 0 C9 0.66 9 1.32 9 2 C5.7 2.33 2.4 2.66 -1 3 C-0.67 2.01 -0.34 1.02 0 0 Z " fill="#51467C" transform="translate(200,414)"/>
<path d="M0 0 C-0.66 1.65 -1.32 3.3 -2 5 C-3.32 4.67 -4.64 4.34 -6 4 C-6 3.34 -6 2.68 -6 2 C-3 0 -3 0 0 0 Z " fill="#584D7A" transform="translate(335,397)"/>
<path d="M0 0 C2.61527381 2.36620011 4.26440562 4.942048 6 8 C5.01 8.495 5.01 8.495 4 9 C-0.00390625 4.60546875 -0.00390625 4.60546875 -1 3 C-0.67 2.01 -0.34 1.02 0 0 Z " fill="#544980" transform="translate(637,360)"/>
<path d="M0 0 C0.66 0.99 1.32 1.98 2 3 C1.67 3.99 1.34 4.98 1 6 C-0.65 6.33 -2.3 6.66 -4 7 C-2.68 4.69 -1.36 2.38 0 0 Z " fill="#5F5781" transform="translate(375,350)"/>
<path d="M0 0 C-0.825 0.45375 -1.65 0.9075 -2.5 1.375 C-3.7375 2.179375 -3.7375 2.179375 -5 3 C-5 3.66 -5 4.32 -5 5 C-5.99 5 -6.98 5 -8 5 C-8.33 3.68 -8.66 2.36 -9 1 C-2.25 -1.125 -2.25 -1.125 0 0 Z " fill="#605488" transform="translate(344,352)"/>
<path d="M0 0 C0.99 0 1.98 0 3 0 C2.67 1.65 2.34 3.3 2 5 C1.01 5 0.02 5 -1 5 C-0.67 3.35 -0.34 1.7 0 0 Z " fill="#F9F7F9" transform="translate(723,691)"/>
<path d="M0 0 C0.33 1.32 0.66 2.64 1 4 C-0.32 4.99 -1.64 5.98 -3 7 C-3.66 6.34 -4.32 5.68 -5 5 C-3.35 3.35 -1.7 1.7 0 0 Z " fill="#594F82" transform="translate(362,570)"/>
<path d="M0 0 C-3.08888522 2.05925681 -3.70935927 2.2390374 -7.1875 2.125 C-9.0746875 2.063125 -9.0746875 2.063125 -11 2 C-6.56704896 -0.95530069 -5.21113081 -1.01956907 0 0 Z " fill="#4E4177" transform="translate(183,441)"/>
<path d="M0 0 C0 1.32 0 2.64 0 4 C-1.65 3.67 -3.3 3.34 -5 3 C-5.33 2.01 -5.66 1.02 -6 0 C-2.25 -1.125 -2.25 -1.125 0 0 Z " fill="#5D5189" transform="translate(330,356)"/>
<path d="M0 0 C0.33 0.99 0.66 1.98 1 3 C1.99 3.33 2.98 3.66 4 4 C4 4.66 4 5.32 4 6 C2.35 6.66 0.7 7.32 -1 8 C-1 4.88742431 -0.82638376 2.89234315 0 0 Z " fill="#372E5B" transform="translate(408,682)"/>
<path d="M0 0 C1.65 0 3.3 0 5 0 C5 0.99 5 1.98 5 3 C3.02 3 1.04 3 -1 3 C-0.67 2.01 -0.34 1.02 0 0 Z " fill="#050317" transform="translate(611,684)"/>
<path d="M0 0 C2.31 0.33 4.62 0.66 7 1 C6.67 1.66 6.34 2.32 6 3 C4.02 3 2.04 3 0 3 C0 2.01 0 1.02 0 0 Z " fill="#64598A" transform="translate(322,558)"/>
<path d="M0 0 C0.97110486 3.02121511 1.13617383 5.00463263 0 8 C-0.99 8.495 -0.99 8.495 -2 9 C-2.66 8.34 -3.32 7.68 -4 7 C-3.525625 6.401875 -3.05125 5.80375 -2.5625 5.1875 C-0.83534256 2.99617076 -0.83534256 2.99617076 0 0 Z " fill="#5C5184" transform="translate(668,474)"/>
<path d="M0 0 C0.66 0.33 1.32 0.66 2 1 C0.71034824 2.37562854 -0.62689293 3.70766393 -2 5 C-2.66 5 -3.32 5 -4 5 C-4.33 4.01 -4.66 3.02 -5 2 C-2.625 0.9375 -2.625 0.9375 0 0 Z " fill="#5F5488" transform="translate(224,442)"/>
<path d="M0 0 C1.8125 0.1875 1.8125 0.1875 4 1 C5.75 3.5625 5.75 3.5625 7 6 C6.01 6 5.02 6 4 6 C1.8125 3 1.8125 3 0 0 Z " fill="#53497E" transform="translate(616,338)"/>
</svg>
